<?xml version="1.0" encoding="UTF-8" standalone="no"?>
<svg width="548.922mm" height="69.4972mm"
 xmlns="http://www.w3.org/2000/svg" xmlns:xlink="http://www.w3.org/1999/xlink"  version="1.2" baseProfile="tiny">
<title>Qt SVG Document</title>
<desc>Generated with Qt</desc>
<defs>
</defs>
<g fill="none" stroke="black" stroke-width="1" fill-rule="evenodd" stroke-linecap="square" stroke-linejoin="bevel" >

<g fill="none" stroke="#000000" stroke-opacity="1" stroke-width="1" stroke-linecap="square" stroke-linejoin="bevel" transform="matrix(1,0,0,1,0,0)"
font-family="Ubuntu" font-size="11" font-weight="400" font-style="normal" 
>
</g>

<g fill="none" stroke="#000000" stroke-opacity="1" stroke-width="1" stroke-linecap="square" stroke-linejoin="bevel" transform="matrix(1,0,0,1,0,0)"
font-family="Ubuntu" font-size="11" font-weight="400" font-style="normal" 
>
</g>

<g fill="none" stroke="#000000" stroke-opacity="1" stroke-width="1" stroke-linecap="square" stroke-linejoin="bevel" transform="matrix(2,0,0,2,0.002,212)"
font-family="Ubuntu" font-size="11" font-weight="400" font-style="normal" 
>
</g>

<g fill="#ffffff" fill-opacity="1" stroke="none" transform="matrix(2,0,0,2,0.002,212)"
font-family="Ubuntu" font-size="11" font-weight="400" font-style="normal" 
>
<rect x="-0.001" y="-106" width="777.961" height="98.5"/>
</g>

<g fill="none" stroke="#000000" stroke-opacity="1" stroke-width="1" stroke-linecap="square" stroke-linejoin="bevel" transform="matrix(2,0,0,2,0.002,212)"
font-family="Ubuntu" font-size="11" font-weight="400" font-style="normal" 
>
</g>

<g fill="none" stroke="#000000" stroke-opacity="1" stroke-width="1" stroke-linecap="square" stroke-linejoin="bevel" transform="matrix(2,0,0,2,0.002,212)"
font-family="Ubuntu" font-size="11" font-weight="400" font-style="normal" 
>
</g>

<g fill="none" stroke="#000000" stroke-opacity="1" stroke-width="1" stroke-linecap="square" stroke-linejoin="bevel" transform="matrix(2,0,0,2,0.002,212)"
font-family="Ubuntu" font-size="11" font-weight="400" font-style="normal" 
>
</g>

<g fill="none" stroke="#000000" stroke-opacity="1" stroke-width="1" stroke-linecap="square" stroke-linejoin="bevel" transform="matrix(2,0,0,2,0.002,212)"
font-family="Ubuntu" font-size="11" font-weight="400" font-style="normal" 
>
</g>

<g fill="none" stroke="#000000" stroke-opacity="1" stroke-width="1" stroke-linecap="square" stroke-linejoin="round" transform="matrix(2,0,0,2,0.002,212)"
font-family="Ubuntu" font-size="11" font-weight="400" font-style="normal" 
>
<ellipse cx="53.945" cy="-88" rx="53.446" ry="17.5"/>
</g>

<g fill="none" stroke="#000000" stroke-opacity="1" stroke-width="1" stroke-linecap="square" stroke-linejoin="bevel" transform="matrix(2,0,0,2,0.002,212)"
font-family="Ubuntu" font-size="11" font-weight="400" font-style="normal" 
>
</g>

<g fill="none" stroke="#000000" stroke-opacity="1" stroke-width="1" stroke-linecap="square" stroke-linejoin="bevel" transform="matrix(2,0,0,2,41.7826,23)"
font-family="Ubuntu" font-size="11" font-weight="400" font-style="normal" 
>
</g>

<g fill="none" stroke="#000000" stroke-opacity="1" stroke-width="1" stroke-linecap="square" stroke-linejoin="bevel" transform="matrix(2,0,0,2,41.7826,23)"
font-family="sans" font-size="11" font-weight="100" font-style="normal" 
>
</g>

<g fill="#000000" fill-opacity="1" stroke="#000000" stroke-opacity="1" stroke-width="1" stroke-linecap="square" stroke-linejoin="round" transform="matrix(2,0,0,2,41.7826,23)"
font-family="sans" font-size="11" font-weight="100" font-style="normal" 
>
<path vector-effect="none" fill-rule="nonzero" d="M2.79688,1.98438 L3.70312,1.98438 L0.90625,11.0156 L0,11.0156 L2.79688,1.98438 M8.70312,6.92188 C8.70312,6.20312 8.55469,5.64844 8.25781,5.25781 C7.96094,4.86719 7.54688,4.67188 7.01562,4.67188 C6.48438,4.67188 6.07031,4.86719 5.77344,5.25781 C5.47656,5.64844 5.32812,6.20312 5.32812,6.92188 C5.32812,7.63021 5.47656,8.18229 5.77344,8.57812 C6.07031,8.97396 6.48438,9.17188 7.01562,9.17188 C7.54688,9.17188 7.96094,8.97396 8.25781,8.57812 C8.55469,8.18229 8.70312,7.63021 8.70312,6.92188 M9.6875,9.25 C9.6875,10.2812 9.46094,11.0443 9.00781,11.5391 C8.55469,12.0339 7.85938,12.2812 6.92188,12.2812 C6.56771,12.2812 6.23698,12.2552 5.92969,12.2031 C5.6224,12.151 5.32292,12.0729 5.03125,11.9688 L5.03125,11.0156 C5.32292,11.1719 5.60938,11.2865 5.89062,11.3594 C6.17188,11.4323 6.46354,11.4688 6.76562,11.4688 C7.41146,11.4688 7.89583,11.2995 8.21875,10.9609 C8.54167,10.6224 8.70312,10.1146 8.70312,9.4375 L8.70312,8.9375 C8.49479,9.29167 8.23177,9.55729 7.91406,9.73438 C7.59635,9.91146 7.21354,10 6.76562,10 C6.02604,10 5.43229,9.71875 4.98438,9.15625 C4.53646,8.59375 4.3125,7.84896 4.3125,6.92188 C4.3125,5.99479 4.53646,5.25 4.98438,4.6875 C5.43229,4.125 6.02604,3.84375 6.76562,3.84375 C7.21354,3.84375 7.59635,3.92969 7.91406,4.10156 C8.23177,4.27344 8.49479,4.53646 8.70312,4.89062 L8.70312,3.98438 L9.6875,3.98438 L9.6875,9.25 M14.4375,6.96875 C13.6458,6.96875 13.0964,7.0625 12.7891,7.25 C12.4818,7.4375 12.3281,7.75 12.3281,8.1875 C12.3281,8.53125 12.4427,8.80729 12.6719,9.01562 C12.901,9.22396 13.2135,9.32812 13.6094,9.32812 C14.1615,9.32812 14.6016,9.13281 14.9297,8.74219 C15.2578,8.35156 15.4219,7.83854 15.4219,7.20312 L15.4219,6.96875 L14.4375,6.96875 M16.4062,6.5625 L16.4062,10 L15.4219,10 L15.4219,9.09375 C15.2031,9.45833 14.9245,9.72656 14.5859,9.89844 C14.2474,10.0703 13.8333,10.1562 13.3438,10.1562 C12.7292,10.1562 12.2396,9.98438 11.875,9.64062 C11.5104,9.29688 11.3281,8.83333 11.3281,8.25 C11.3281,7.57292 11.5547,7.0625 12.0078,6.71875 C12.4609,6.375 13.1406,6.20312 14.0469,6.20312 L15.4219,6.20312 L15.4219,6.10938 C15.4219,5.65104 15.2734,5.29688 14.9766,5.04688 C14.6797,4.79688 14.2604,4.67188 13.7188,4.67188 C13.375,4.67188 13.0391,4.71354 12.7109,4.79688 C12.3828,4.88021 12.0677,5.00521 11.7656,5.17188 L11.7656,4.26562 C12.1302,4.11979 12.4844,4.01302 12.8281,3.94531 C13.1719,3.8776 13.5,3.84375 13.8125,3.84375 C14.6875,3.84375 15.3385,4.06771 15.7656,4.51562 C16.1927,4.96354 16.4062,5.64583 16.4062,6.5625 M18.0156,3.98438 L22.7031,3.98438 L22.7031,4.89062 L18.9844,9.20312 L22.7031,9.20312 L22.7031,10 L17.875,10 L17.875,9.09375 L21.5938,4.78125 L18.0156,4.78125 L18.0156,3.98438 M29.3594,6.75 L29.3594,7.23438 L24.8125,7.23438 C24.8542,7.91146 25.0573,8.42708 25.4219,8.78125 C25.7865,9.13542 26.2969,9.3125 26.9531,9.3125 C27.3385,9.3125 27.7083,9.26562 28.0625,9.17188 C28.4167,9.07812 28.7708,8.94271 29.125,8.76562 L29.125,9.6875 C28.7708,9.84375 28.4062,9.96094 28.0312,10.0391 C27.6562,10.1172 27.2812,10.1562 26.9062,10.1562 C25.9375,10.1562 25.1745,9.8776 24.6172,9.32031 C24.0599,8.76302 23.7812,8.00521 23.7812,7.04688 C23.7812,6.06771 24.0469,5.28906 24.5781,4.71094 C25.1094,4.13281 25.8281,3.84375 26.7344,3.84375 C27.5365,3.84375 28.1745,4.10417 28.6484,4.625 C29.1224,5.14583 29.3594,5.85417 29.3594,6.75 M28.3594,6.45312 C28.3594,5.91146 28.2109,5.47917 27.9141,5.15625 C27.6172,4.83333 27.224,4.67188 26.7344,4.67188 C26.1823,4.67188 25.7422,4.82812 25.4141,5.14062 C25.0859,5.45312 24.8958,5.89062 24.8438,6.45312 L28.3594,6.45312 M35.2969,7 C35.2969,6.27083 35.1458,5.70052 34.8438,5.28906 C34.5417,4.8776 34.1302,4.67188 33.6094,4.67188 C33.0885,4.67188 32.6797,4.8776 32.3828,5.28906 C32.0859,5.70052 31.9375,6.27083 31.9375,7 C31.9375,7.72917 32.0859,8.29948 32.3828,8.71094 C32.6797,9.1224 33.0885,9.32812 33.6094,9.32812 C34.1302,9.32812 34.5417,9.1224 34.8438,8.71094 C35.1458,8.29948 35.2969,7.72917 35.2969,7 M31.9375,4.89062 C32.1354,4.53646 32.3932,4.27344 32.7109,4.10156 C33.0286,3.92969 33.4115,3.84375 33.8594,3.84375 C34.5885,3.84375 35.1797,4.13281 35.6328,4.71094 C36.0859,5.28906 36.3125,6.05208 36.3125,7 C36.3125,7.94792 36.0859,8.71094 35.6328,9.28906 C35.1797,9.86719 34.5885,10.1562 33.8594,10.1562 C33.4115,10.1562 33.0286,10.0703 32.7109,9.89844 C32.3932,9.72656 32.1354,9.45833 31.9375,9.09375 L31.9375,10 L30.9375,10 L30.9375,1.64062 L31.9375,1.64062 L31.9375,4.89062 M40.2812,4.67188 C39.75,4.67188 39.3307,4.88021 39.0234,5.29688 C38.7161,5.71354 38.5625,6.28125 38.5625,7 C38.5625,7.71875 38.7135,8.28385 39.0156,8.69531 C39.3177,9.10677 39.7396,9.3125 40.2812,9.3125 C40.8021,9.3125 41.2161,9.10677 41.5234,8.69531 C41.8307,8.28385 41.9844,7.71875 41.9844,7 C41.9844,6.28125 41.8307,5.71354 41.5234,5.29688 C41.2161,4.88021 40.8021,4.67188 40.2812,4.67188 M40.2812,3.84375 C41.1354,3.84375 41.8073,4.1224 42.2969,4.67969 C42.7865,5.23698 43.0312,6.01042 43.0312,7 C43.0312,7.97917 42.7865,8.75 42.2969,9.3125 C41.8073,9.875 41.1354,10.1562 40.2812,10.1562 C39.4167,10.1562 38.7396,9.875 38.25,9.3125 C37.7604,8.75 37.5156,7.97917 37.5156,7 C37.5156,6.01042 37.7604,5.23698 38.25,4.67969 C38.7396,4.1224 39.4167,3.84375 40.2812,3.84375 M49.2344,11.8281 L49.2344,12.5938 L43.5156,12.5938 L43.5156,11.8281 L49.2344,11.8281 M54.125,6.92188 C54.125,6.20312 53.9766,5.64844 53.6797,5.25781 C53.3828,4.86719 52.9688,4.67188 52.4375,4.67188 C51.9062,4.67188 51.4922,4.86719 51.1953,5.25781 C50.8984,5.64844 50.75,6.20312 50.75,6.92188 C50.75,7.63021 50.8984,8.18229 51.1953,8.57812 C51.4922,8.97396 51.9062,9.17188 52.4375,9.17188 C52.9688,9.17188 53.3828,8.97396 53.6797,8.57812 C53.9766,8.18229 54.125,7.63021 54.125,6.92188 M55.1094,9.25 C55.1094,10.2812 54.8828,11.0443 54.4297,11.5391 C53.9766,12.0339 53.2812,12.2812 52.3438,12.2812 C51.9896,12.2812 51.6589,12.2552 51.3516,12.2031 C51.0443,12.151 50.7448,12.0729 50.4531,11.9688 L50.4531,11.0156 C50.7448,11.1719 51.0312,11.2865 51.3125,11.3594 C51.5938,11.4323 51.8854,11.4688 52.1875,11.4688 C52.8333,11.4688 53.3177,11.2995 53.6406,10.9609 C53.9635,10.6224 54.125,10.1146 54.125,9.4375 L54.125,8.9375 C53.9167,9.29167 53.6536,9.55729 53.3359,9.73438 C53.0182,9.91146 52.6354,10 52.1875,10 C51.4479,10 50.8542,9.71875 50.4062,9.15625 C49.9583,8.59375 49.7344,7.84896 49.7344,6.92188 C49.7344,5.99479 49.9583,5.25 50.4062,4.6875 C50.8542,4.125 51.4479,3.84375 52.1875,3.84375 C52.6354,3.84375 53.0182,3.92969 53.3359,4.10156 C53.6536,4.27344 53.9167,4.53646 54.125,4.89062 L54.125,3.98438 L55.1094,3.98438 L55.1094,9.25 M57.0312,7.625 L57.0312,3.98438 L58.0156,3.98438 L58.0156,7.59375 C58.0156,8.15625 58.1276,8.58073 58.3516,8.86719 C58.5755,9.15365 58.9062,9.29688 59.3438,9.29688 C59.8854,9.29688 60.3099,9.1276 60.6172,8.78906 C60.9245,8.45052 61.0781,7.98438 61.0781,7.39062 L61.0781,3.98438 L62.0625,3.98438 L62.0625,10 L61.0781,10 L61.0781,9.07812 C60.8385,9.44271 60.5599,9.71354 60.2422,9.89062 C59.9245,10.0677 59.5573,10.1562 59.1406,10.1562 C58.4531,10.1562 57.9297,9.9401 57.5703,9.50781 C57.2109,9.07552 57.0312,8.44792 57.0312,7.625 M64.0938,3.98438 L65.0938,3.98438 L65.0938,10 L64.0938,10 L64.0938,3.98438 M64.0938,1.64062 L65.0938,1.64062 L65.0938,2.89062 L64.0938,2.89062 L64.0938,1.64062"/>
</g>

<g fill="none" stroke="#000000" stroke-opacity="1" stroke-width="1" stroke-linecap="square" stroke-linejoin="bevel" transform="matrix(2,0,0,2,41.7826,23)"
font-family="sans" font-size="11" font-weight="100" font-style="normal" 
>
</g>

<g fill="none" stroke="#000000" stroke-opacity="1" stroke-width="1" stroke-linecap="square" stroke-linejoin="bevel" transform="matrix(2,0,0,2,41.7826,23)"
font-family="Ubuntu" font-size="11" font-weight="400" font-style="normal" 
>
</g>

<g fill="none" stroke="#000000" stroke-opacity="1" stroke-width="1" stroke-linecap="square" stroke-linejoin="bevel" transform="matrix(2,0,0,2,0.002,212)"
font-family="Ubuntu" font-size="11" font-weight="400" font-style="normal" 
>
</g>

<g fill="none" stroke="#000000" stroke-opacity="1" stroke-width="1" stroke-linecap="square" stroke-linejoin="bevel" transform="matrix(2,0,0,2,0.002,212)"
font-family="Ubuntu" font-size="11" font-weight="400" font-style="normal" 
>
</g>

<g fill="none" stroke="#000000" stroke-opacity="1" stroke-width="1" stroke-linecap="square" stroke-linejoin="bevel" transform="matrix(2,0,0,2,0.002,212)"
font-family="Ubuntu" font-size="11" font-weight="400" font-style="normal" 
>
</g>

<g fill="none" stroke="#000000" stroke-opacity="1" stroke-width="1" stroke-linecap="square" stroke-linejoin="round" transform="matrix(2,0,0,2,0.002,212)"
font-family="Ubuntu" font-size="11" font-weight="400" font-style="normal" 
>
<ellipse cx="362.84" cy="-34" rx="40.4464" ry="17.5"/>
</g>

<g fill="none" stroke="#000000" stroke-opacity="1" stroke-width="1" stroke-linecap="square" stroke-linejoin="bevel" transform="matrix(2,0,0,2,0.002,212)"
font-family="Ubuntu" font-size="11" font-weight="400" font-style="normal" 
>
</g>

<g fill="none" stroke="#000000" stroke-opacity="1" stroke-width="1" stroke-linecap="square" stroke-linejoin="bevel" transform="matrix(2,0,0,2,679.791,131)"
font-family="Ubuntu" font-size="11" font-weight="400" font-style="normal" 
>
</g>

<g fill="none" stroke="#000000" stroke-opacity="1" stroke-width="1" stroke-linecap="square" stroke-linejoin="bevel" transform="matrix(2,0,0,2,679.791,131)"
font-family="sans" font-size="11" font-weight="100" font-style="normal" 
>
</g>

<g fill="#000000" fill-opacity="1" stroke="#000000" stroke-opacity="1" stroke-width="1" stroke-linecap="square" stroke-linejoin="round" transform="matrix(2,0,0,2,679.791,131)"
font-family="sans" font-size="11" font-weight="100" font-style="normal" 
>
<path vector-effect="none" fill-rule="nonzero" d="M2.79688,1.98438 L3.70312,1.98438 L0.90625,11.0156 L0,11.0156 L2.79688,1.98438 M4.17188,3.98438 L5.15625,3.98438 L6.39062,8.67188 L7.625,3.98438 L8.78125,3.98438 L10.0156,8.67188 L11.25,3.98438 L12.2344,3.98438 L10.6719,10 L9.5,10 L8.20312,5.0625 L6.90625,10 L5.73438,10 L4.17188,3.98438 M18.7188,6.375 L18.7188,10 L17.7344,10 L17.7344,6.40625 C17.7344,5.83333 17.625,5.40625 17.4062,5.125 C17.1875,4.84375 16.8542,4.70312 16.4062,4.70312 C15.875,4.70312 15.4557,4.8724 15.1484,5.21094 C14.8411,5.54948 14.6875,6.01042 14.6875,6.59375 L14.6875,10 L13.6875,10 L13.6875,1.64062 L14.6875,1.64062 L14.6875,4.92188 C14.9167,4.55729 15.1927,4.28646 15.5156,4.10938 C15.8385,3.93229 16.2083,3.84375 16.625,3.84375 C17.3125,3.84375 17.8333,4.05729 18.1875,4.48438 C18.5417,4.91146 18.7188,5.54167 18.7188,6.375 M23.2031,10.5625 C22.9219,11.2812 22.6484,11.7474 22.3828,11.9609 C22.1172,12.1745 21.7604,12.2812 21.3125,12.2812 L20.5312,12.2812 L20.5312,11.4688 L21.1094,11.4688 C21.3802,11.4688 21.5911,11.4036 21.7422,11.2734 C21.8932,11.1432 22.0573,10.8385 22.2344,10.3594 L22.4219,9.90625 L19.9844,3.98438 L21.0312,3.98438 L22.9062,8.6875 L24.7969,3.98438 L25.8438,3.98438 L23.2031,10.5625 M31.5156,4.21875 L31.5156,5.14062 C31.2448,4.98438 30.9688,4.86719 30.6875,4.78906 C30.4062,4.71094 30.1198,4.67188 29.8281,4.67188 C29.1927,4.67188 28.6979,4.875 28.3438,5.28125 C27.9896,5.6875 27.8125,6.26042 27.8125,7 C27.8125,7.72917 27.9896,8.29688 28.3438,8.70312 C28.6979,9.10938 29.1927,9.3125 29.8281,9.3125 C30.1198,9.3125 30.4062,9.27604 30.6875,9.20312 C30.9688,9.13021 31.2448,9.01562 31.5156,8.85938 L31.5156,9.76562 C31.2448,9.90104 30.9609,10 30.6641,10.0625 C30.3672,10.125 30.0521,10.1562 29.7188,10.1562 C28.8125,10.1562 28.0938,9.8724 27.5625,9.30469 C27.0312,8.73698 26.7656,7.96875 26.7656,7 C26.7656,6.02083 27.0339,5.25 27.5703,4.6875 C28.1068,4.125 28.8438,3.84375 29.7812,3.84375 C30.0938,3.84375 30.3932,3.875 30.6797,3.9375 C30.9661,4 31.2448,4.09375 31.5156,4.21875 M35.5781,4.67188 C35.0469,4.67188 34.6276,4.88021 34.3203,5.29688 C34.013,5.71354 33.8594,6.28125 33.8594,7 C33.8594,7.71875 34.0104,8.28385 34.3125,8.69531 C34.6146,9.10677 35.0365,9.3125 35.5781,9.3125 C36.099,9.3125 36.513,9.10677 36.8203,8.69531 C37.1276,8.28385 37.2812,7.71875 37.2812,7 C37.2812,6.28125 37.1276,5.71354 36.8203,5.29688 C36.513,4.88021 36.099,4.67188 35.5781,4.67188 M35.5781,3.84375 C36.4323,3.84375 37.1042,4.1224 37.5938,4.67969 C38.0833,5.23698 38.3281,6.01042 38.3281,7 C38.3281,7.97917 38.0833,8.75 37.5938,9.3125 C37.1042,9.875 36.4323,10.1562 35.5781,10.1562 C34.7135,10.1562 34.0365,9.875 33.5469,9.3125 C33.0573,8.75 32.8125,7.97917 32.8125,7 C32.8125,6.01042 33.0573,5.23698 33.5469,4.67969 C34.0365,4.1224 34.7135,3.84375 35.5781,3.84375 M44.9531,6.375 L44.9531,10 L43.9688,10 L43.9688,6.40625 C43.9688,5.83333 43.8594,5.40625 43.6406,5.125 C43.4219,4.84375 43.0885,4.70312 42.6406,4.70312 C42.1094,4.70312 41.6901,4.8724 41.3828,5.21094 C41.0755,5.54948 40.9219,6.01042 40.9219,6.59375 L40.9219,10 L39.9219,10 L39.9219,3.98438 L40.9219,3.98438 L40.9219,4.92188 C41.151,4.55729 41.4271,4.28646 41.75,4.10938 C42.0729,3.93229 42.4427,3.84375 42.8594,3.84375 C43.5469,3.84375 44.0677,4.05729 44.4219,4.48438 C44.776,4.91146 44.9531,5.54167 44.9531,6.375 "/>
</g>

<g fill="none" stroke="#000000" stroke-opacity="1" stroke-width="1" stroke-linecap="square" stroke-linejoin="bevel" transform="matrix(2,0,0,2,679.791,131)"
font-family="sans" font-size="11" font-weight="100" font-style="normal" 
>
</g>

<g fill="none" stroke="#000000" stroke-opacity="1" stroke-width="1" stroke-linecap="square" stroke-linejoin="bevel" transform="matrix(2,0,0,2,679.791,131)"
font-family="Ubuntu" font-size="11" font-weight="400" font-style="normal" 
>
</g>

<g fill="none" stroke="#000000" stroke-opacity="1" stroke-width="1" stroke-linecap="square" stroke-linejoin="bevel" transform="matrix(2,0,0,2,0.002,212)"
font-family="Ubuntu" font-size="11" font-weight="400" font-style="normal" 
>
</g>

<g fill="none" stroke="#000000" stroke-opacity="1" stroke-width="1" stroke-linecap="square" stroke-linejoin="bevel" transform="matrix(2,0,0,2,0.002,212)"
font-family="Ubuntu" font-size="11" font-weight="400" font-style="normal" 
>
</g>

<g fill="none" stroke="#000000" stroke-opacity="1" stroke-width="1" stroke-linecap="square" stroke-linejoin="bevel" transform="matrix(2,0,0,2,0.002,212)"
font-family="Ubuntu" font-size="11" font-weight="400" font-style="normal" 
>
</g>

<g fill="none" stroke="#000000" stroke-opacity="1" stroke-width="1" stroke-linecap="square" stroke-linejoin="round" transform="matrix(2,0,0,2,0.002,212)"
font-family="Ubuntu" font-size="11" font-weight="400" font-style="normal" 
>
<ellipse cx="53.945" cy="-34" rx="37.8472" ry="17.5"/>
</g>

<g fill="none" stroke="#000000" stroke-opacity="1" stroke-width="1" stroke-linecap="square" stroke-linejoin="bevel" transform="matrix(2,0,0,2,0.002,212)"
font-family="Ubuntu" font-size="11" font-weight="400" font-style="normal" 
>
</g>

<g fill="none" stroke="#000000" stroke-opacity="1" stroke-width="1" stroke-linecap="square" stroke-linejoin="bevel" transform="matrix(2,0,0,2,64.267,131)"
font-family="Ubuntu" font-size="11" font-weight="400" font-style="normal" 
>
</g>

<g fill="none" stroke="#000000" stroke-opacity="1" stroke-width="1" stroke-linecap="square" stroke-linejoin="bevel" transform="matrix(2,0,0,2,64.267,131)"
font-family="sans" font-size="11" font-weight="100" font-style="normal" 
>
</g>

<g fill="#000000" fill-opacity="1" stroke="#000000" stroke-opacity="1" stroke-width="1" stroke-linecap="square" stroke-linejoin="round" transform="matrix(2,0,0,2,64.267,131)"
font-family="sans" font-size="11" font-weight="100" font-style="normal" 
>
<path vector-effect="none" fill-rule="nonzero" d="M2.79688,1.98438 L3.70312,1.98438 L0.90625,11.0156 L0,11.0156 L2.79688,1.98438 M8.70312,6.92188 C8.70312,6.20312 8.55469,5.64844 8.25781,5.25781 C7.96094,4.86719 7.54688,4.67188 7.01562,4.67188 C6.48438,4.67188 6.07031,4.86719 5.77344,5.25781 C5.47656,5.64844 5.32812,6.20312 5.32812,6.92188 C5.32812,7.63021 5.47656,8.18229 5.77344,8.57812 C6.07031,8.97396 6.48438,9.17188 7.01562,9.17188 C7.54688,9.17188 7.96094,8.97396 8.25781,8.57812 C8.55469,8.18229 8.70312,7.63021 8.70312,6.92188 M9.6875,9.25 C9.6875,10.2812 9.46094,11.0443 9.00781,11.5391 C8.55469,12.0339 7.85938,12.2812 6.92188,12.2812 C6.56771,12.2812 6.23698,12.2552 5.92969,12.2031 C5.6224,12.151 5.32292,12.0729 5.03125,11.9688 L5.03125,11.0156 C5.32292,11.1719 5.60938,11.2865 5.89062,11.3594 C6.17188,11.4323 6.46354,11.4688 6.76562,11.4688 C7.41146,11.4688 7.89583,11.2995 8.21875,10.9609 C8.54167,10.6224 8.70312,10.1146 8.70312,9.4375 L8.70312,8.9375 C8.49479,9.29167 8.23177,9.55729 7.91406,9.73438 C7.59635,9.91146 7.21354,10 6.76562,10 C6.02604,10 5.43229,9.71875 4.98438,9.15625 C4.53646,8.59375 4.3125,7.84896 4.3125,6.92188 C4.3125,5.99479 4.53646,5.25 4.98438,4.6875 C5.43229,4.125 6.02604,3.84375 6.76562,3.84375 C7.21354,3.84375 7.59635,3.92969 7.91406,4.10156 C8.23177,4.27344 8.49479,4.53646 8.70312,4.89062 L8.70312,3.98438 L9.6875,3.98438 L9.6875,9.25 M14.4375,6.96875 C13.6458,6.96875 13.0964,7.0625 12.7891,7.25 C12.4818,7.4375 12.3281,7.75 12.3281,8.1875 C12.3281,8.53125 12.4427,8.80729 12.6719,9.01562 C12.901,9.22396 13.2135,9.32812 13.6094,9.32812 C14.1615,9.32812 14.6016,9.13281 14.9297,8.74219 C15.2578,8.35156 15.4219,7.83854 15.4219,7.20312 L15.4219,6.96875 L14.4375,6.96875 M16.4062,6.5625 L16.4062,10 L15.4219,10 L15.4219,9.09375 C15.2031,9.45833 14.9245,9.72656 14.5859,9.89844 C14.2474,10.0703 13.8333,10.1562 13.3438,10.1562 C12.7292,10.1562 12.2396,9.98438 11.875,9.64062 C11.5104,9.29688 11.3281,8.83333 11.3281,8.25 C11.3281,7.57292 11.5547,7.0625 12.0078,6.71875 C12.4609,6.375 13.1406,6.20312 14.0469,6.20312 L15.4219,6.20312 L15.4219,6.10938 C15.4219,5.65104 15.2734,5.29688 14.9766,5.04688 C14.6797,4.79688 14.2604,4.67188 13.7188,4.67188 C13.375,4.67188 13.0391,4.71354 12.7109,4.79688 C12.3828,4.88021 12.0677,5.00521 11.7656,5.17188 L11.7656,4.26562 C12.1302,4.11979 12.4844,4.01302 12.8281,3.94531 C13.1719,3.8776 13.5,3.84375 13.8125,3.84375 C14.6875,3.84375 15.3385,4.06771 15.7656,4.51562 C16.1927,4.96354 16.4062,5.64583 16.4062,6.5625 M18.0156,3.98438 L22.7031,3.98438 L22.7031,4.89062 L18.9844,9.20312 L22.7031,9.20312 L22.7031,10 L17.875,10 L17.875,9.09375 L21.5938,4.78125 L18.0156,4.78125 L18.0156,3.98438 M29.3594,6.75 L29.3594,7.23438 L24.8125,7.23438 C24.8542,7.91146 25.0573,8.42708 25.4219,8.78125 C25.7865,9.13542 26.2969,9.3125 26.9531,9.3125 C27.3385,9.3125 27.7083,9.26562 28.0625,9.17188 C28.4167,9.07812 28.7708,8.94271 29.125,8.76562 L29.125,9.6875 C28.7708,9.84375 28.4062,9.96094 28.0312,10.0391 C27.6562,10.1172 27.2812,10.1562 26.9062,10.1562 C25.9375,10.1562 25.1745,9.8776 24.6172,9.32031 C24.0599,8.76302 23.7812,8.00521 23.7812,7.04688 C23.7812,6.06771 24.0469,5.28906 24.5781,4.71094 C25.1094,4.13281 25.8281,3.84375 26.7344,3.84375 C27.5365,3.84375 28.1745,4.10417 28.6484,4.625 C29.1224,5.14583 29.3594,5.85417 29.3594,6.75 M28.3594,6.45312 C28.3594,5.91146 28.2109,5.47917 27.9141,5.15625 C27.6172,4.83333 27.224,4.67188 26.7344,4.67188 C26.1823,4.67188 25.7422,4.82812 25.4141,5.14062 C25.0859,5.45312 24.8958,5.89062 24.8438,6.45312 L28.3594,6.45312 M35.2969,7 C35.2969,6.27083 35.1458,5.70052 34.8438,5.28906 C34.5417,4.8776 34.1302,4.67188 33.6094,4.67188 C33.0885,4.67188 32.6797,4.8776 32.3828,5.28906 C32.0859,5.70052 31.9375,6.27083 31.9375,7 C31.9375,7.72917 32.0859,8.29948 32.3828,8.71094 C32.6797,9.1224 33.0885,9.32812 33.6094,9.32812 C34.1302,9.32812 34.5417,9.1224 34.8438,8.71094 C35.1458,8.29948 35.2969,7.72917 35.2969,7 M31.9375,4.89062 C32.1354,4.53646 32.3932,4.27344 32.7109,4.10156 C33.0286,3.92969 33.4115,3.84375 33.8594,3.84375 C34.5885,3.84375 35.1797,4.13281 35.6328,4.71094 C36.0859,5.28906 36.3125,6.05208 36.3125,7 C36.3125,7.94792 36.0859,8.71094 35.6328,9.28906 C35.1797,9.86719 34.5885,10.1562 33.8594,10.1562 C33.4115,10.1562 33.0286,10.0703 32.7109,9.89844 C32.3932,9.72656 32.1354,9.45833 31.9375,9.09375 L31.9375,10 L30.9375,10 L30.9375,1.64062 L31.9375,1.64062 L31.9375,4.89062 M40.2812,4.67188 C39.75,4.67188 39.3307,4.88021 39.0234,5.29688 C38.7161,5.71354 38.5625,6.28125 38.5625,7 C38.5625,7.71875 38.7135,8.28385 39.0156,8.69531 C39.3177,9.10677 39.7396,9.3125 40.2812,9.3125 C40.8021,9.3125 41.2161,9.10677 41.5234,8.69531 C41.8307,8.28385 41.9844,7.71875 41.9844,7 C41.9844,6.28125 41.8307,5.71354 41.5234,5.29688 C41.2161,4.88021 40.8021,4.67188 40.2812,4.67188 M40.2812,3.84375 C41.1354,3.84375 41.8073,4.1224 42.2969,4.67969 C42.7865,5.23698 43.0312,6.01042 43.0312,7 C43.0312,7.97917 42.7865,8.75 42.2969,9.3125 C41.8073,9.875 41.1354,10.1562 40.2812,10.1562 C39.4167,10.1562 38.7396,9.875 38.25,9.3125 C37.7604,8.75 37.5156,7.97917 37.5156,7 C37.5156,6.01042 37.7604,5.23698 38.25,4.67969 C38.7396,4.1224 39.4167,3.84375 40.2812,3.84375 "/>
</g>

<g fill="none" stroke="#000000" stroke-opacity="1" stroke-width="1" stroke-linecap="square" stroke-linejoin="bevel" transform="matrix(2,0,0,2,64.267,131)"
font-family="sans" font-size="11" font-weight="100" font-style="normal" 
>
</g>

<g fill="none" stroke="#000000" stroke-opacity="1" stroke-width="1" stroke-linecap="square" stroke-linejoin="bevel" transform="matrix(2,0,0,2,64.267,131)"
font-family="Ubuntu" font-size="11" font-weight="400" font-style="normal" 
>
</g>

<g fill="none" stroke="#000000" stroke-opacity="1" stroke-width="1" stroke-linecap="square" stroke-linejoin="bevel" transform="matrix(2,0,0,2,0.002,212)"
font-family="Ubuntu" font-size="11" font-weight="400" font-style="normal" 
>
</g>

<g fill="none" stroke="#000000" stroke-opacity="1" stroke-width="1" stroke-linecap="square" stroke-linejoin="bevel" transform="matrix(2,0,0,2,0.002,212)"
font-family="Ubuntu" font-size="11" font-weight="400" font-style="normal" 
>
</g>

<g fill="none" stroke="#000000" stroke-opacity="1" stroke-width="1" stroke-linecap="square" stroke-linejoin="bevel" transform="matrix(2,0,0,2,0.002,212)"
font-family="Ubuntu" font-size="11" font-weight="400" font-style="normal" 
>
</g>

<g fill="none" stroke="#000000" stroke-opacity="1" stroke-width="1" stroke-linecap="square" stroke-linejoin="round" transform="matrix(2,0,0,2,0.002,212)"
font-family="Ubuntu" font-size="11" font-weight="400" font-style="normal" 
>
<rect x="528.78" y="-83" width="248.68" height="75"/>
</g>

<g fill="none" stroke="#000000" stroke-opacity="1" stroke-width="1" stroke-linecap="square" stroke-linejoin="bevel" transform="matrix(2,0,0,2,0.002,212)"
font-family="Ubuntu" font-size="11" font-weight="400" font-style="normal" 
>
</g>

<g fill="none" stroke="#000000" stroke-opacity="1" stroke-width="1" stroke-linecap="square" stroke-linejoin="bevel" transform="matrix(2,0,0,2,1219.57,56)"
font-family="Ubuntu" font-size="11" font-weight="400" font-style="normal" 
>
</g>

<g fill="none" stroke="#000000" stroke-opacity="1" stroke-width="1" stroke-linecap="square" stroke-linejoin="bevel" transform="matrix(2,0,0,2,1219.57,56)"
font-family="sans" font-size="11" font-weight="100" font-style="normal" 
>
</g>

<g fill="#000000" fill-opacity="1" stroke="#000000" stroke-opacity="1" stroke-width="1" stroke-linecap="square" stroke-linejoin="round" transform="matrix(2,0,0,2,1219.57,56)"
font-family="sans" font-size="11" font-weight="100" font-style="normal" 
>
<path vector-effect="none" fill-rule="nonzero" d="M0.46875,3.98438 L1.45312,3.98438 L2.6875,8.67188 L3.92188,3.98438 L5.07812,3.98438 L6.3125,8.67188 L7.54688,3.98438 L8.53125,3.98438 L6.96875,10 L5.79688,10 L4.5,5.0625 L3.20312,10 L2.03125,10 L0.46875,3.98438 M15.0156,6.375 L15.0156,10 L14.0312,10 L14.0312,6.40625 C14.0312,5.83333 13.9219,5.40625 13.7031,5.125 C13.4844,4.84375 13.151,4.70312 12.7031,4.70312 C12.1719,4.70312 11.7526,4.8724 11.4453,5.21094 C11.138,5.54948 10.9844,6.01042 10.9844,6.59375 L10.9844,10 L9.98438,10 L9.98438,1.64062 L10.9844,1.64062 L10.9844,4.92188 C11.2135,4.55729 11.4896,4.28646 11.8125,4.10938 C12.1354,3.93229 12.5052,3.84375 12.9219,3.84375 C13.6094,3.84375 14.1302,4.05729 14.4844,4.48438 C14.8385,4.91146 15.0156,5.54167 15.0156,6.375 M19.5,10.5625 C19.2188,11.2812 18.9453,11.7474 18.6797,11.9609 C18.4141,12.1745 18.0573,12.2812 17.6094,12.2812 L16.8281,12.2812 L16.8281,11.4688 L17.4062,11.4688 C17.6771,11.4688 17.888,11.4036 18.0391,11.2734 C18.1901,11.1432 18.3542,10.8385 18.5312,10.3594 L18.7188,9.90625 L16.2812,3.98438 L17.3281,3.98438 L19.2031,8.6875 L21.0938,3.98438 L22.1406,3.98438 L19.5,10.5625 M27.8125,4.21875 L27.8125,5.14062 C27.5417,4.98438 27.2656,4.86719 26.9844,4.78906 C26.7031,4.71094 26.4167,4.67188 26.125,4.67188 C25.4896,4.67188 24.9948,4.875 24.6406,5.28125 C24.2865,5.6875 24.1094,6.26042 24.1094,7 C24.1094,7.72917 24.2865,8.29688 24.6406,8.70312 C24.9948,9.10938 25.4896,9.3125 26.125,9.3125 C26.4167,9.3125 26.7031,9.27604 26.9844,9.20312 C27.2656,9.13021 27.5417,9.01562 27.8125,8.85938 L27.8125,9.76562 C27.5417,9.90104 27.2578,10 26.9609,10.0625 C26.6641,10.125 26.349,10.1562 26.0156,10.1562 C25.1094,10.1562 24.3906,9.8724 23.8594,9.30469 C23.3281,8.73698 23.0625,7.96875 23.0625,7 C23.0625,6.02083 23.3307,5.25 23.8672,4.6875 C24.4036,4.125 25.1406,3.84375 26.0781,3.84375 C26.3906,3.84375 26.6901,3.875 26.9766,3.9375 C27.263,4 27.5417,4.09375 27.8125,4.21875 M31.875,4.67188 C31.3438,4.67188 30.9245,4.88021 30.6172,5.29688 C30.3099,5.71354 30.1562,6.28125 30.1562,7 C30.1562,7.71875 30.3073,8.28385 30.6094,8.69531 C30.9115,9.10677 31.3333,9.3125 31.875,9.3125 C32.3958,9.3125 32.8099,9.10677 33.1172,8.69531 C33.4245,8.28385 33.5781,7.71875 33.5781,7 C33.5781,6.28125 33.4245,5.71354 33.1172,5.29688 C32.8099,4.88021 32.3958,4.67188 31.875,4.67188 M31.875,3.84375 C32.7292,3.84375 33.401,4.1224 33.8906,4.67969 C34.3802,5.23698 34.625,6.01042 34.625,7 C34.625,7.97917 34.3802,8.75 33.8906,9.3125 C33.401,9.875 32.7292,10.1562 31.875,10.1562 C31.0104,10.1562 30.3333,9.875 29.8438,9.3125 C29.3542,8.75 29.1094,7.97917 29.1094,7 C29.1094,6.01042 29.3542,5.23698 29.8438,4.67969 C30.3333,4.1224 31.0104,3.84375 31.875,3.84375 M41.25,6.375 L41.25,10 L40.2656,10 L40.2656,6.40625 C40.2656,5.83333 40.1562,5.40625 39.9375,5.125 C39.7188,4.84375 39.3854,4.70312 38.9375,4.70312 C38.4062,4.70312 37.987,4.8724 37.6797,5.21094 C37.3724,5.54948 37.2188,6.01042 37.2188,6.59375 L37.2188,10 L36.2188,10 L36.2188,3.98438 L37.2188,3.98438 L37.2188,4.92188 C37.4479,4.55729 37.724,4.28646 38.0469,4.10938 C38.3698,3.93229 38.7396,3.84375 39.1562,3.84375 C39.8438,3.84375 40.3646,4.05729 40.7188,4.48438 C41.0729,4.91146 41.25,5.54167 41.25,6.375 M47.7969,11.8281 L47.7969,12.5938 L42.0781,12.5938 L42.0781,11.8281 L47.7969,11.8281 M52.6875,4.89062 L52.6875,1.64062 L53.6719,1.64062 L53.6719,10 L52.6875,10 L52.6875,9.09375 C52.4792,9.45833 52.2161,9.72656 51.8984,9.89844 C51.5807,10.0703 51.1979,10.1562 50.75,10.1562 C50.0312,10.1562 49.4427,9.86719 48.9844,9.28906 C48.526,8.71094 48.2969,7.94792 48.2969,7 C48.2969,6.05208 48.526,5.28906 48.9844,4.71094 C49.4427,4.13281 50.0312,3.84375 50.75,3.84375 C51.1979,3.84375 51.5807,3.92969 51.8984,4.10156 C52.2161,4.27344 52.4792,4.53646 52.6875,4.89062 M49.3125,7 C49.3125,7.72917 49.4635,8.29948 49.7656,8.71094 C50.0677,9.1224 50.4792,9.32812 51,9.32812 C51.5208,9.32812 51.9323,9.1224 52.2344,8.71094 C52.5365,8.29948 52.6875,7.72917 52.6875,7 C52.6875,6.27083 52.5365,5.70052 52.2344,5.28906 C51.9323,4.8776 51.5208,4.67188 51,4.67188 C50.4792,4.67188 50.0677,4.8776 49.7656,5.28906 C49.4635,5.70052 49.3125,6.27083 49.3125,7 M55.6875,3.98438 L56.6875,3.98438 L56.6875,10 L55.6875,10 L55.6875,3.98438 M55.6875,1.64062 L56.6875,1.64062 L56.6875,2.89062 L55.6875,2.89062 L55.6875,1.64062 M62.5781,4.15625 L62.5781,5.09375 C62.2969,4.94792 62.0052,4.84115 61.7031,4.77344 C61.401,4.70573 61.0885,4.67188 60.7656,4.67188 C60.276,4.67188 59.9089,4.7474 59.6641,4.89844 C59.4193,5.04948 59.2969,5.27083 59.2969,5.5625 C59.2969,5.79167 59.3854,5.97135 59.5625,6.10156 C59.7396,6.23177 60.0938,6.35938 60.625,6.48438 L60.9531,6.5625 C61.6615,6.70833 62.1615,6.91927 62.4531,7.19531 C62.7448,7.47135 62.8906,7.85417 62.8906,8.34375 C62.8906,8.89583 62.6719,9.33594 62.2344,9.66406 C61.7969,9.99219 61.1875,10.1562 60.4062,10.1562 C60.0833,10.1562 59.7474,10.125 59.3984,10.0625 C59.0495,10 58.6823,9.90625 58.2969,9.78125 L58.2969,8.76562 C58.6615,8.95312 59.0208,9.09375 59.375,9.1875 C59.7292,9.28125 60.0833,9.32812 60.4375,9.32812 C60.8958,9.32812 61.25,9.2474 61.5,9.08594 C61.75,8.92448 61.875,8.70312 61.875,8.42188 C61.875,8.15104 61.7865,7.94271 61.6094,7.79688 C61.4323,7.65104 61.0365,7.51562 60.4219,7.39062 L60.0781,7.29688 C59.4635,7.17188 59.0208,6.97656 58.75,6.71094 C58.4792,6.44531 58.3438,6.07812 58.3438,5.60938 C58.3438,5.04688 58.5443,4.61198 58.9453,4.30469 C59.3464,3.9974 59.9167,3.84375 60.6562,3.84375 C61.0208,3.84375 61.3646,3.86979 61.6875,3.92188 C62.0104,3.97396 62.3073,4.05208 62.5781,4.15625 M65.4219,9.09375 L65.4219,12.2812 L64.4219,12.2812 L64.4219,3.98438 L65.4219,3.98438 L65.4219,4.89062 C65.6198,4.53646 65.8776,4.27344 66.1953,4.10156 C66.513,3.92969 66.8958,3.84375 67.3438,3.84375 C68.0729,3.84375 68.6641,4.13281 69.1172,4.71094 C69.5703,5.28906 69.7969,6.05208 69.7969,7 C69.7969,7.94792 69.5703,8.71094 69.1172,9.28906 C68.6641,9.86719 68.0729,10.1562 67.3438,10.1562 C66.8958,10.1562 66.513,10.0703 66.1953,9.89844 C65.8776,9.72656 65.6198,9.45833 65.4219,9.09375 M68.7812,7 C68.7812,6.27083 68.6302,5.70052 68.3281,5.28906 C68.026,4.8776 67.6146,4.67188 67.0938,4.67188 C66.5729,4.67188 66.1641,4.8776 65.8672,5.28906 C65.5703,5.70052 65.4219,6.27083 65.4219,7 C65.4219,7.72917 65.5703,8.29948 65.8672,8.71094 C66.1641,9.1224 66.5729,9.32812 67.0938,9.32812 C67.6146,9.32812 68.026,9.1224 68.3281,8.71094 C68.6302,8.29948 68.7812,7.72917 68.7812,7 M71.4219,1.64062 L72.4219,1.64062 L72.4219,10 L71.4219,10 L71.4219,1.64062 M77.2031,6.96875 C76.4115,6.96875 75.862,7.0625 75.5547,7.25 C75.2474,7.4375 75.0938,7.75 75.0938,8.1875 C75.0938,8.53125 75.2083,8.80729 75.4375,9.01562 C75.6667,9.22396 75.9792,9.32812 76.375,9.32812 C76.9271,9.32812 77.3672,9.13281 77.6953,8.74219 C78.0234,8.35156 78.1875,7.83854 78.1875,7.20312 L78.1875,6.96875 L77.2031,6.96875 M79.1719,6.5625 L79.1719,10 L78.1875,10 L78.1875,9.09375 C77.9688,9.45833 77.6901,9.72656 77.3516,9.89844 C77.013,10.0703 76.599,10.1562 76.1094,10.1562 C75.4948,10.1562 75.0052,9.98438 74.6406,9.64062 C74.276,9.29688 74.0938,8.83333 74.0938,8.25 C74.0938,7.57292 74.3203,7.0625 74.7734,6.71875 C75.2266,6.375 75.9062,6.20312 76.8125,6.20312 L78.1875,6.20312 L78.1875,6.10938 C78.1875,5.65104 78.0391,5.29688 77.7422,5.04688 C77.4453,4.79688 77.026,4.67188 76.4844,4.67188 C76.1406,4.67188 75.8047,4.71354 75.4766,4.79688 C75.1484,4.88021 74.8333,5.00521 74.5312,5.17188 L74.5312,4.26562 C74.8958,4.11979 75.25,4.01302 75.5938,3.94531 C75.9375,3.8776 76.2656,3.84375 76.5781,3.84375 C77.4531,3.84375 78.1042,4.06771 78.5312,4.51562 C78.9583,4.96354 79.1719,5.64583 79.1719,6.5625 M83.7188,10.5625 C83.4375,11.2812 83.1641,11.7474 82.8984,11.9609 C82.6328,12.1745 82.276,12.2812 81.8281,12.2812 L81.0469,12.2812 L81.0469,11.4688 L81.625,11.4688 C81.8958,11.4688 82.1068,11.4036 82.2578,11.2734 C82.4089,11.1432 82.5729,10.8385 82.75,10.3594 L82.9375,9.90625 L80.5,3.98438 L81.5469,3.98438 L83.4219,8.6875 L85.3125,3.98438 L86.3594,3.98438 L83.7188,10.5625"/>
</g>

<g fill="none" stroke="#000000" stroke-opacity="1" stroke-width="1" stroke-linecap="square" stroke-linejoin="bevel" transform="matrix(2,0,0,2,1219.57,56)"
font-family="sans" font-size="11" font-weight="100" font-style="normal" 
>
</g>

<g fill="none" stroke="#000000" stroke-opacity="1" stroke-width="1" stroke-linecap="square" stroke-linejoin="bevel" transform="matrix(2,0,0,2,1219.57,56)"
font-family="Ubuntu" font-size="11" font-weight="400" font-style="normal" 
>
</g>

<g fill="none" stroke="#000000" stroke-opacity="1" stroke-width="1" stroke-linecap="square" stroke-linejoin="bevel" transform="matrix(2,0,0,2,0.002,212)"
font-family="Ubuntu" font-size="11" font-weight="400" font-style="normal" 
>
</g>

<g fill="none" stroke="#000000" stroke-opacity="1" stroke-width="1" stroke-linecap="square" stroke-linejoin="bevel" transform="matrix(2,0,0,2,0.002,212)"
font-family="Ubuntu" font-size="11" font-weight="400" font-style="normal" 
>
</g>

<g fill="none" stroke="#000000" stroke-opacity="1" stroke-width="1" stroke-linecap="square" stroke-linejoin="bevel" transform="matrix(2,0,0,2,0.002,212)"
font-family="Ubuntu" font-size="11" font-weight="400" font-style="normal" 
>
</g>

<g fill="none" stroke="#000000" stroke-opacity="1" stroke-width="1" stroke-linecap="square" stroke-linejoin="round" transform="matrix(2,0,0,2,0.002,212)"
font-family="Ubuntu" font-size="11" font-weight="400" font-style="normal" 
>
<ellipse cx="653.12" cy="-34" rx="115.841" ry="17.5"/>
</g>

<g fill="none" stroke="#000000" stroke-opacity="1" stroke-width="1" stroke-linecap="square" stroke-linejoin="bevel" transform="matrix(2,0,0,2,0.002,212)"
font-family="Ubuntu" font-size="11" font-weight="400" font-style="normal" 
>
</g>

<g fill="none" stroke="#000000" stroke-opacity="1" stroke-width="1" stroke-linecap="square" stroke-linejoin="bevel" transform="matrix(2,0,0,2,1147.15,131)"
font-family="Ubuntu" font-size="11" font-weight="400" font-style="normal" 
>
</g>

<g fill="none" stroke="#000000" stroke-opacity="1" stroke-width="1" stroke-linecap="square" stroke-linejoin="bevel" transform="matrix(2,0,0,2,1147.15,131)"
font-family="sans" font-size="11" font-weight="100" font-style="normal" 
>
</g>

<g fill="#000000" fill-opacity="1" stroke="#000000" stroke-opacity="1" stroke-width="1" stroke-linecap="square" stroke-linejoin="round" transform="matrix(2,0,0,2,1147.15,131)"
font-family="sans" font-size="11" font-weight="100" font-style="normal" 
>
<path vector-effect="none" fill-rule="nonzero" d="M2.79688,1.98438 L3.70312,1.98438 L0.90625,11.0156 L0,11.0156 L2.79688,1.98438 M4.17188,3.98438 L5.15625,3.98438 L6.39062,8.67188 L7.625,3.98438 L8.78125,3.98438 L10.0156,8.67188 L11.25,3.98438 L12.2344,3.98438 L10.6719,10 L9.5,10 L8.20312,5.0625 L6.90625,10 L5.73438,10 L4.17188,3.98438 M18.7188,6.375 L18.7188,10 L17.7344,10 L17.7344,6.40625 C17.7344,5.83333 17.625,5.40625 17.4062,5.125 C17.1875,4.84375 16.8542,4.70312 16.4062,4.70312 C15.875,4.70312 15.4557,4.8724 15.1484,5.21094 C14.8411,5.54948 14.6875,6.01042 14.6875,6.59375 L14.6875,10 L13.6875,10 L13.6875,1.64062 L14.6875,1.64062 L14.6875,4.92188 C14.9167,4.55729 15.1927,4.28646 15.5156,4.10938 C15.8385,3.93229 16.2083,3.84375 16.625,3.84375 C17.3125,3.84375 17.8333,4.05729 18.1875,4.48438 C18.5417,4.91146 18.7188,5.54167 18.7188,6.375 M23.2031,10.5625 C22.9219,11.2812 22.6484,11.7474 22.3828,11.9609 C22.1172,12.1745 21.7604,12.2812 21.3125,12.2812 L20.5312,12.2812 L20.5312,11.4688 L21.1094,11.4688 C21.3802,11.4688 21.5911,11.4036 21.7422,11.2734 C21.8932,11.1432 22.0573,10.8385 22.2344,10.3594 L22.4219,9.90625 L19.9844,3.98438 L21.0312,3.98438 L22.9062,8.6875 L24.7969,3.98438 L25.8438,3.98438 L23.2031,10.5625 M31.5156,4.21875 L31.5156,5.14062 C31.2448,4.98438 30.9688,4.86719 30.6875,4.78906 C30.4062,4.71094 30.1198,4.67188 29.8281,4.67188 C29.1927,4.67188 28.6979,4.875 28.3438,5.28125 C27.9896,5.6875 27.8125,6.26042 27.8125,7 C27.8125,7.72917 27.9896,8.29688 28.3438,8.70312 C28.6979,9.10938 29.1927,9.3125 29.8281,9.3125 C30.1198,9.3125 30.4062,9.27604 30.6875,9.20312 C30.9688,9.13021 31.2448,9.01562 31.5156,8.85938 L31.5156,9.76562 C31.2448,9.90104 30.9609,10 30.6641,10.0625 C30.3672,10.125 30.0521,10.1562 29.7188,10.1562 C28.8125,10.1562 28.0938,9.8724 27.5625,9.30469 C27.0312,8.73698 26.7656,7.96875 26.7656,7 C26.7656,6.02083 27.0339,5.25 27.5703,4.6875 C28.1068,4.125 28.8438,3.84375 29.7812,3.84375 C30.0938,3.84375 30.3932,3.875 30.6797,3.9375 C30.9661,4 31.2448,4.09375 31.5156,4.21875 M35.5781,4.67188 C35.0469,4.67188 34.6276,4.88021 34.3203,5.29688 C34.013,5.71354 33.8594,6.28125 33.8594,7 C33.8594,7.71875 34.0104,8.28385 34.3125,8.69531 C34.6146,9.10677 35.0365,9.3125 35.5781,9.3125 C36.099,9.3125 36.513,9.10677 36.8203,8.69531 C37.1276,8.28385 37.2812,7.71875 37.2812,7 C37.2812,6.28125 37.1276,5.71354 36.8203,5.29688 C36.513,4.88021 36.099,4.67188 35.5781,4.67188 M35.5781,3.84375 C36.4323,3.84375 37.1042,4.1224 37.5938,4.67969 C38.0833,5.23698 38.3281,6.01042 38.3281,7 C38.3281,7.97917 38.0833,8.75 37.5938,9.3125 C37.1042,9.875 36.4323,10.1562 35.5781,10.1562 C34.7135,10.1562 34.0365,9.875 33.5469,9.3125 C33.0573,8.75 32.8125,7.97917 32.8125,7 C32.8125,6.01042 33.0573,5.23698 33.5469,4.67969 C34.0365,4.1224 34.7135,3.84375 35.5781,3.84375 M44.9531,6.375 L44.9531,10 L43.9688,10 L43.9688,6.40625 C43.9688,5.83333 43.8594,5.40625 43.6406,5.125 C43.4219,4.84375 43.0885,4.70312 42.6406,4.70312 C42.1094,4.70312 41.6901,4.8724 41.3828,5.21094 C41.0755,5.54948 40.9219,6.01042 40.9219,6.59375 L40.9219,10 L39.9219,10 L39.9219,3.98438 L40.9219,3.98438 L40.9219,4.92188 C41.151,4.55729 41.4271,4.28646 41.75,4.10938 C42.0729,3.93229 42.4427,3.84375 42.8594,3.84375 C43.5469,3.84375 44.0677,4.05729 44.4219,4.48438 C44.776,4.91146 44.9531,5.54167 44.9531,6.375 M51.5,11.8281 L51.5,12.5938 L45.7812,12.5938 L45.7812,11.8281 L51.5,11.8281 M56.3906,4.89062 L56.3906,1.64062 L57.375,1.64062 L57.375,10 L56.3906,10 L56.3906,9.09375 C56.1823,9.45833 55.9193,9.72656 55.6016,9.89844 C55.2839,10.0703 54.901,10.1562 54.4531,10.1562 C53.7344,10.1562 53.1458,9.86719 52.6875,9.28906 C52.2292,8.71094 52,7.94792 52,7 C52,6.05208 52.2292,5.28906 52.6875,4.71094 C53.1458,4.13281 53.7344,3.84375 54.4531,3.84375 C54.901,3.84375 55.2839,3.92969 55.6016,4.10156 C55.9193,4.27344 56.1823,4.53646 56.3906,4.89062 M53.0156,7 C53.0156,7.72917 53.1667,8.29948 53.4688,8.71094 C53.7708,9.1224 54.1823,9.32812 54.7031,9.32812 C55.224,9.32812 55.6354,9.1224 55.9375,8.71094 C56.2396,8.29948 56.3906,7.72917 56.3906,7 C56.3906,6.27083 56.2396,5.70052 55.9375,5.28906 C55.6354,4.8776 55.224,4.67188 54.7031,4.67188 C54.1823,4.67188 53.7708,4.8776 53.4688,5.28906 C53.1667,5.70052 53.0156,6.27083 53.0156,7 M59.3906,3.98438 L60.3906,3.98438 L60.3906,10 L59.3906,10 L59.3906,3.98438 M59.3906,1.64062 L60.3906,1.64062 L60.3906,2.89062 L59.3906,2.89062 L59.3906,1.64062 M66.2812,4.15625 L66.2812,5.09375 C66,4.94792 65.7083,4.84115 65.4062,4.77344 C65.1042,4.70573 64.7917,4.67188 64.4688,4.67188 C63.9792,4.67188 63.612,4.7474 63.3672,4.89844 C63.1224,5.04948 63,5.27083 63,5.5625 C63,5.79167 63.0885,5.97135 63.2656,6.10156 C63.4427,6.23177 63.7969,6.35938 64.3281,6.48438 L64.6562,6.5625 C65.3646,6.70833 65.8646,6.91927 66.1562,7.19531 C66.4479,7.47135 66.5938,7.85417 66.5938,8.34375 C66.5938,8.89583 66.375,9.33594 65.9375,9.66406 C65.5,9.99219 64.8906,10.1562 64.1094,10.1562 C63.7865,10.1562 63.4505,10.125 63.1016,10.0625 C62.7526,10 62.3854,9.90625 62,9.78125 L62,8.76562 C62.3646,8.95312 62.724,9.09375 63.0781,9.1875 C63.4323,9.28125 63.7865,9.32812 64.1406,9.32812 C64.599,9.32812 64.9531,9.2474 65.2031,9.08594 C65.4531,8.92448 65.5781,8.70312 65.5781,8.42188 C65.5781,8.15104 65.4896,7.94271 65.3125,7.79688 C65.1354,7.65104 64.7396,7.51562 64.125,7.39062 L63.7812,7.29688 C63.1667,7.17188 62.724,6.97656 62.4531,6.71094 C62.1823,6.44531 62.0469,6.07812 62.0469,5.60938 C62.0469,5.04688 62.2474,4.61198 62.6484,4.30469 C63.0495,3.9974 63.6198,3.84375 64.3594,3.84375 C64.724,3.84375 65.0677,3.86979 65.3906,3.92188 C65.7135,3.97396 66.0104,4.05208 66.2812,4.15625 M69.125,9.09375 L69.125,12.2812 L68.125,12.2812 L68.125,3.98438 L69.125,3.98438 L69.125,4.89062 C69.3229,4.53646 69.5807,4.27344 69.8984,4.10156 C70.2161,3.92969 70.599,3.84375 71.0469,3.84375 C71.776,3.84375 72.3672,4.13281 72.8203,4.71094 C73.2734,5.28906 73.5,6.05208 73.5,7 C73.5,7.94792 73.2734,8.71094 72.8203,9.28906 C72.3672,9.86719 71.776,10.1562 71.0469,10.1562 C70.599,10.1562 70.2161,10.0703 69.8984,9.89844 C69.5807,9.72656 69.3229,9.45833 69.125,9.09375 M72.4844,7 C72.4844,6.27083 72.3333,5.70052 72.0312,5.28906 C71.7292,4.8776 71.3177,4.67188 70.7969,4.67188 C70.276,4.67188 69.8672,4.8776 69.5703,5.28906 C69.2734,5.70052 69.125,6.27083 69.125,7 C69.125,7.72917 69.2734,8.29948 69.5703,8.71094 C69.8672,9.1224 70.276,9.32812 70.7969,9.32812 C71.3177,9.32812 71.7292,9.1224 72.0312,8.71094 C72.3333,8.29948 72.4844,7.72917 72.4844,7 M75.125,1.64062 L76.125,1.64062 L76.125,10 L75.125,10 L75.125,1.64062 M80.9062,6.96875 C80.1146,6.96875 79.5651,7.0625 79.2578,7.25 C78.9505,7.4375 78.7969,7.75 78.7969,8.1875 C78.7969,8.53125 78.9115,8.80729 79.1406,9.01562 C79.3698,9.22396 79.6823,9.32812 80.0781,9.32812 C80.6302,9.32812 81.0703,9.13281 81.3984,8.74219 C81.7266,8.35156 81.8906,7.83854 81.8906,7.20312 L81.8906,6.96875 L80.9062,6.96875 M82.875,6.5625 L82.875,10 L81.8906,10 L81.8906,9.09375 C81.6719,9.45833 81.3932,9.72656 81.0547,9.89844 C80.7161,10.0703 80.3021,10.1562 79.8125,10.1562 C79.1979,10.1562 78.7083,9.98438 78.3438,9.64062 C77.9792,9.29688 77.7969,8.83333 77.7969,8.25 C77.7969,7.57292 78.0234,7.0625 78.4766,6.71875 C78.9297,6.375 79.6094,6.20312 80.5156,6.20312 L81.8906,6.20312 L81.8906,6.10938 C81.8906,5.65104 81.7422,5.29688 81.4453,5.04688 C81.1484,4.79688 80.7292,4.67188 80.1875,4.67188 C79.8438,4.67188 79.5078,4.71354 79.1797,4.79688 C78.8516,4.88021 78.5365,5.00521 78.2344,5.17188 L78.2344,4.26562 C78.599,4.11979 78.9531,4.01302 79.2969,3.94531 C79.6406,3.8776 79.9688,3.84375 80.2812,3.84375 C81.1562,3.84375 81.8073,4.06771 82.2344,4.51562 C82.6615,4.96354 82.875,5.64583 82.875,6.5625 M87.4219,10.5625 C87.1406,11.2812 86.8672,11.7474 86.6016,11.9609 C86.3359,12.1745 85.9792,12.2812 85.5312,12.2812 L84.75,12.2812 L84.75,11.4688 L85.3281,11.4688 C85.599,11.4688 85.8099,11.4036 85.9609,11.2734 C86.112,11.1432 86.276,10.8385 86.4531,10.3594 L86.6406,9.90625 L84.2031,3.98438 L85.25,3.98438 L87.125,8.6875 L89.0156,3.98438 L90.0625,3.98438 L87.4219,10.5625 M93.1719,1.98438 L94.0781,1.98438 L91.2812,11.0156 L90.375,11.0156 L93.1719,1.98438 M95.1094,3.98438 L96.1094,3.98438 L96.1094,10 L95.1094,10 L95.1094,3.98438 M95.1094,1.64062 L96.1094,1.64062 L96.1094,2.89062 L95.1094,2.89062 L95.1094,1.64062 M102.844,5.14062 C103.094,4.69271 103.391,4.36458 103.734,4.15625 C104.078,3.94792 104.484,3.84375 104.953,3.84375 C105.578,3.84375 106.06,4.0625 106.398,4.5 C106.737,4.9375 106.906,5.5625 106.906,6.375 L106.906,10 L105.906,10 L105.906,6.40625 C105.906,5.82292 105.805,5.39323 105.602,5.11719 C105.398,4.84115 105.089,4.70312 104.672,4.70312 C104.161,4.70312 103.758,4.8724 103.461,5.21094 C103.164,5.54948 103.016,6.01042 103.016,6.59375 L103.016,10 L102.016,10 L102.016,6.40625 C102.016,5.82292 101.914,5.39323 101.711,5.11719 C101.508,4.84115 101.193,4.70312 100.766,4.70312 C100.266,4.70312 99.8672,4.8724 99.5703,5.21094 C99.2734,5.54948 99.125,6.01042 99.125,6.59375 L99.125,10 L98.125,10 L98.125,3.98438 L99.125,3.98438 L99.125,4.92188 C99.3438,4.54688 99.612,4.27344 99.9297,4.10156 C100.247,3.92969 100.62,3.84375 101.047,3.84375 C101.484,3.84375 101.857,3.95312 102.164,4.17188 C102.471,4.39062 102.698,4.71354 102.844,5.14062 M111.594,6.96875 C110.802,6.96875 110.253,7.0625 109.945,7.25 C109.638,7.4375 109.484,7.75 109.484,8.1875 C109.484,8.53125 109.599,8.80729 109.828,9.01562 C110.057,9.22396 110.37,9.32812 110.766,9.32812 C111.318,9.32812 111.758,9.13281 112.086,8.74219 C112.414,8.35156 112.578,7.83854 112.578,7.20312 L112.578,6.96875 L111.594,6.96875 M113.562,6.5625 L113.562,10 L112.578,10 L112.578,9.09375 C112.359,9.45833 112.081,9.72656 111.742,9.89844 C111.404,10.0703 110.99,10.1562 110.5,10.1562 C109.885,10.1562 109.396,9.98438 109.031,9.64062 C108.667,9.29688 108.484,8.83333 108.484,8.25 C108.484,7.57292 108.711,7.0625 109.164,6.71875 C109.617,6.375 110.297,6.20312 111.203,6.20312 L112.578,6.20312 L112.578,6.10938 C112.578,5.65104 112.43,5.29688 112.133,5.04688 C111.836,4.79688 111.417,4.67188 110.875,4.67188 C110.531,4.67188 110.195,4.71354 109.867,4.79688 C109.539,4.88021 109.224,5.00521 108.922,5.17188 L108.922,4.26562 C109.286,4.11979 109.641,4.01302 109.984,3.94531 C110.328,3.8776 110.656,3.84375 110.969,3.84375 C111.844,3.84375 112.495,4.06771 112.922,4.51562 C113.349,4.96354 113.562,5.64583 113.562,6.5625 M119.562,6.92188 C119.562,6.20312 119.414,5.64844 119.117,5.25781 C118.82,4.86719 118.406,4.67188 117.875,4.67188 C117.344,4.67188 116.93,4.86719 116.633,5.25781 C116.336,5.64844 116.188,6.20312 116.188,6.92188 C116.188,7.63021 116.336,8.18229 116.633,8.57812 C116.93,8.97396 117.344,9.17188 117.875,9.17188 C118.406,9.17188 118.82,8.97396 119.117,8.57812 C119.414,8.18229 119.562,7.63021 119.562,6.92188 M120.547,9.25 C120.547,10.2812 120.32,11.0443 119.867,11.5391 C119.414,12.0339 118.719,12.2812 117.781,12.2812 C117.427,12.2812 117.096,12.2552 116.789,12.2031 C116.482,12.151 116.182,12.0729 115.891,11.9688 L115.891,11.0156 C116.182,11.1719 116.469,11.2865 116.75,11.3594 C117.031,11.4323 117.323,11.4688 117.625,11.4688 C118.271,11.4688 118.755,11.2995 119.078,10.9609 C119.401,10.6224 119.562,10.1146 119.562,9.4375 L119.562,8.9375 C119.354,9.29167 119.091,9.55729 118.773,9.73438 C118.456,9.91146 118.073,10 117.625,10 C116.885,10 116.292,9.71875 115.844,9.15625 C115.396,8.59375 115.172,7.84896 115.172,6.92188 C115.172,5.99479 115.396,5.25 115.844,4.6875 C116.292,4.125 116.885,3.84375 117.625,3.84375 C118.073,3.84375 118.456,3.92969 118.773,4.10156 C119.091,4.27344 119.354,4.53646 119.562,4.89062 L119.562,3.98438 L120.547,3.98438 L120.547,9.25 M127.719,6.75 L127.719,7.23438 L123.172,7.23438 C123.214,7.91146 123.417,8.42708 123.781,8.78125 C124.146,9.13542 124.656,9.3125 125.312,9.3125 C125.698,9.3125 126.068,9.26562 126.422,9.17188 C126.776,9.07812 127.13,8.94271 127.484,8.76562 L127.484,9.6875 C127.13,9.84375 126.766,9.96094 126.391,10.0391 C126.016,10.1172 125.641,10.1562 125.266,10.1562 C124.297,10.1562 123.534,9.8776 122.977,9.32031 C122.419,8.76302 122.141,8.00521 122.141,7.04688 C122.141,6.06771 122.406,5.28906 122.938,4.71094 C123.469,4.13281 124.188,3.84375 125.094,3.84375 C125.896,3.84375 126.534,4.10417 127.008,4.625 C127.482,5.14583 127.719,5.85417 127.719,6.75 M126.719,6.45312 C126.719,5.91146 126.57,5.47917 126.273,5.15625 C125.977,4.83333 125.583,4.67188 125.094,4.67188 C124.542,4.67188 124.102,4.82812 123.773,5.14062 C123.445,5.45312 123.255,5.89062 123.203,6.45312 L126.719,6.45312 M133.906,11.8281 L133.906,12.5938 L128.188,12.5938 L128.188,11.8281 L133.906,11.8281 M134.125,3.98438 L135.172,3.98438 L137.047,9.03125 L138.938,3.98438 L139.984,3.98438 L137.719,10 L136.375,10 L134.125,3.98438 M141.328,3.98438 L142.328,3.98438 L142.328,10 L141.328,10 L141.328,3.98438 M141.328,1.64062 L142.328,1.64062 L142.328,2.89062 L141.328,2.89062 L141.328,1.64062 M149.531,6.75 L149.531,7.23438 L144.984,7.23438 C145.026,7.91146 145.229,8.42708 145.594,8.78125 C145.958,9.13542 146.469,9.3125 147.125,9.3125 C147.51,9.3125 147.88,9.26562 148.234,9.17188 C148.589,9.07812 148.943,8.94271 149.297,8.76562 L149.297,9.6875 C148.943,9.84375 148.578,9.96094 148.203,10.0391 C147.828,10.1172 147.453,10.1562 147.078,10.1562 C146.109,10.1562 145.346,9.8776 144.789,9.32031 C144.232,8.76302 143.953,8.00521 143.953,7.04688 C143.953,6.06771 144.219,5.28906 144.75,4.71094 C145.281,4.13281 146,3.84375 146.906,3.84375 C147.708,3.84375 148.346,4.10417 148.82,4.625 C149.294,5.14583 149.531,5.85417 149.531,6.75 M148.531,6.45312 C148.531,5.91146 148.383,5.47917 148.086,5.15625 C147.789,4.83333 147.396,4.67188 146.906,4.67188 C146.354,4.67188 145.914,4.82812 145.586,5.14062 C145.258,5.45312 145.068,5.89062 145.016,6.45312 L148.531,6.45312 M150.578,3.98438 L151.562,3.98438 L152.797,8.67188 L154.031,3.98438 L155.188,3.98438 L156.422,8.67188 L157.656,3.98438 L158.641,3.98438 L157.078,10 L155.906,10 L154.609,5.0625 L153.312,10 L152.141,10 L150.578,3.98438"/>
</g>

<g fill="none" stroke="#000000" stroke-opacity="1" stroke-width="1" stroke-linecap="square" stroke-linejoin="bevel" transform="matrix(2,0,0,2,1147.15,131)"
font-family="sans" font-size="11" font-weight="100" font-style="normal" 
>
</g>

<g fill="none" stroke="#000000" stroke-opacity="1" stroke-width="1" stroke-linecap="square" stroke-linejoin="bevel" transform="matrix(2,0,0,2,1147.15,131)"
font-family="Ubuntu" font-size="11" font-weight="400" font-style="normal" 
>
</g>

<g fill="none" stroke="#000000" stroke-opacity="1" stroke-width="1" stroke-linecap="square" stroke-linejoin="bevel" transform="matrix(2,0,0,2,0.002,212)"
font-family="Ubuntu" font-size="11" font-weight="400" font-style="normal" 
>
</g>

<g fill="none" stroke="#000000" stroke-opacity="1" stroke-width="1" stroke-linecap="square" stroke-linejoin="bevel" transform="matrix(2,0,0,2,0.002,212)"
font-family="Ubuntu" font-size="11" font-weight="400" font-style="normal" 
>
</g>

<g fill="none" stroke="#000000" stroke-opacity="1" stroke-width="1" stroke-linecap="square" stroke-linejoin="bevel" transform="matrix(2,0,0,2,0.002,212)"
font-family="Ubuntu" font-size="11" font-weight="400" font-style="normal" 
>
</g>

<g fill="none" stroke="#000000" stroke-opacity="1" stroke-width="1" stroke-linecap="square" stroke-linejoin="round" transform="matrix(2,0,0,2,0.002,212)"
font-family="Ubuntu" font-size="11" font-weight="400" font-style="normal" 
>
<path vector-effect="none" fill-rule="evenodd" d="M92.576,-34 C147.5,-34 249.75,-34 311.22,-34 "/>
</g>

<g fill="none" stroke="#000000" stroke-opacity="1" stroke-width="1" stroke-linecap="square" stroke-linejoin="bevel" transform="matrix(2,0,0,2,0.002,212)"
font-family="Ubuntu" font-size="11" font-weight="400" font-style="normal" 
>
</g>

<g fill="none" stroke="#000000" stroke-opacity="1" stroke-width="1" stroke-linecap="square" stroke-linejoin="bevel" transform="matrix(2,0,0,2,230.235,116)"
font-family="Ubuntu" font-size="11" font-weight="400" font-style="normal" 
>
</g>

<g fill="none" stroke="#000000" stroke-opacity="1" stroke-width="1" stroke-linecap="square" stroke-linejoin="bevel" transform="matrix(2,0,0,2,230.235,116)"
font-family="sans" font-size="11" font-weight="100" font-style="normal" 
>
</g>

<g fill="#000000" fill-opacity="1" stroke="#000000" stroke-opacity="1" stroke-width="1" stroke-linecap="square" stroke-linejoin="round" transform="matrix(2,0,0,2,230.235,116)"
font-family="sans" font-size="11" font-weight="100" font-style="normal" 
>
<path vector-effect="none" fill-rule="nonzero" d="M2.79688,1.98438 L3.70312,1.98438 L0.90625,11.0156 L0,11.0156 L2.79688,1.98438 M8.70312,6.92188 C8.70312,6.20312 8.55469,5.64844 8.25781,5.25781 C7.96094,4.86719 7.54688,4.67188 7.01562,4.67188 C6.48438,4.67188 6.07031,4.86719 5.77344,5.25781 C5.47656,5.64844 5.32812,6.20312 5.32812,6.92188 C5.32812,7.63021 5.47656,8.18229 5.77344,8.57812 C6.07031,8.97396 6.48438,9.17188 7.01562,9.17188 C7.54688,9.17188 7.96094,8.97396 8.25781,8.57812 C8.55469,8.18229 8.70312,7.63021 8.70312,6.92188 M9.6875,9.25 C9.6875,10.2812 9.46094,11.0443 9.00781,11.5391 C8.55469,12.0339 7.85938,12.2812 6.92188,12.2812 C6.56771,12.2812 6.23698,12.2552 5.92969,12.2031 C5.6224,12.151 5.32292,12.0729 5.03125,11.9688 L5.03125,11.0156 C5.32292,11.1719 5.60938,11.2865 5.89062,11.3594 C6.17188,11.4323 6.46354,11.4688 6.76562,11.4688 C7.41146,11.4688 7.89583,11.2995 8.21875,10.9609 C8.54167,10.6224 8.70312,10.1146 8.70312,9.4375 L8.70312,8.9375 C8.49479,9.29167 8.23177,9.55729 7.91406,9.73438 C7.59635,9.91146 7.21354,10 6.76562,10 C6.02604,10 5.43229,9.71875 4.98438,9.15625 C4.53646,8.59375 4.3125,7.84896 4.3125,6.92188 C4.3125,5.99479 4.53646,5.25 4.98438,4.6875 C5.43229,4.125 6.02604,3.84375 6.76562,3.84375 C7.21354,3.84375 7.59635,3.92969 7.91406,4.10156 C8.23177,4.27344 8.49479,4.53646 8.70312,4.89062 L8.70312,3.98438 L9.6875,3.98438 L9.6875,9.25 M14.4375,6.96875 C13.6458,6.96875 13.0964,7.0625 12.7891,7.25 C12.4818,7.4375 12.3281,7.75 12.3281,8.1875 C12.3281,8.53125 12.4427,8.80729 12.6719,9.01562 C12.901,9.22396 13.2135,9.32812 13.6094,9.32812 C14.1615,9.32812 14.6016,9.13281 14.9297,8.74219 C15.2578,8.35156 15.4219,7.83854 15.4219,7.20312 L15.4219,6.96875 L14.4375,6.96875 M16.4062,6.5625 L16.4062,10 L15.4219,10 L15.4219,9.09375 C15.2031,9.45833 14.9245,9.72656 14.5859,9.89844 C14.2474,10.0703 13.8333,10.1562 13.3438,10.1562 C12.7292,10.1562 12.2396,9.98438 11.875,9.64062 C11.5104,9.29688 11.3281,8.83333 11.3281,8.25 C11.3281,7.57292 11.5547,7.0625 12.0078,6.71875 C12.4609,6.375 13.1406,6.20312 14.0469,6.20312 L15.4219,6.20312 L15.4219,6.10938 C15.4219,5.65104 15.2734,5.29688 14.9766,5.04688 C14.6797,4.79688 14.2604,4.67188 13.7188,4.67188 C13.375,4.67188 13.0391,4.71354 12.7109,4.79688 C12.3828,4.88021 12.0677,5.00521 11.7656,5.17188 L11.7656,4.26562 C12.1302,4.11979 12.4844,4.01302 12.8281,3.94531 C13.1719,3.8776 13.5,3.84375 13.8125,3.84375 C14.6875,3.84375 15.3385,4.06771 15.7656,4.51562 C16.1927,4.96354 16.4062,5.64583 16.4062,6.5625 M18.0156,3.98438 L22.7031,3.98438 L22.7031,4.89062 L18.9844,9.20312 L22.7031,9.20312 L22.7031,10 L17.875,10 L17.875,9.09375 L21.5938,4.78125 L18.0156,4.78125 L18.0156,3.98438 M29.3594,6.75 L29.3594,7.23438 L24.8125,7.23438 C24.8542,7.91146 25.0573,8.42708 25.4219,8.78125 C25.7865,9.13542 26.2969,9.3125 26.9531,9.3125 C27.3385,9.3125 27.7083,9.26562 28.0625,9.17188 C28.4167,9.07812 28.7708,8.94271 29.125,8.76562 L29.125,9.6875 C28.7708,9.84375 28.4062,9.96094 28.0312,10.0391 C27.6562,10.1172 27.2812,10.1562 26.9062,10.1562 C25.9375,10.1562 25.1745,9.8776 24.6172,9.32031 C24.0599,8.76302 23.7812,8.00521 23.7812,7.04688 C23.7812,6.06771 24.0469,5.28906 24.5781,4.71094 C25.1094,4.13281 25.8281,3.84375 26.7344,3.84375 C27.5365,3.84375 28.1745,4.10417 28.6484,4.625 C29.1224,5.14583 29.3594,5.85417 29.3594,6.75 M28.3594,6.45312 C28.3594,5.91146 28.2109,5.47917 27.9141,5.15625 C27.6172,4.83333 27.224,4.67188 26.7344,4.67188 C26.1823,4.67188 25.7422,4.82812 25.4141,5.14062 C25.0859,5.45312 24.8958,5.89062 24.8438,6.45312 L28.3594,6.45312 M35.2969,7 C35.2969,6.27083 35.1458,5.70052 34.8438,5.28906 C34.5417,4.8776 34.1302,4.67188 33.6094,4.67188 C33.0885,4.67188 32.6797,4.8776 32.3828,5.28906 C32.0859,5.70052 31.9375,6.27083 31.9375,7 C31.9375,7.72917 32.0859,8.29948 32.3828,8.71094 C32.6797,9.1224 33.0885,9.32812 33.6094,9.32812 C34.1302,9.32812 34.5417,9.1224 34.8438,8.71094 C35.1458,8.29948 35.2969,7.72917 35.2969,7 M31.9375,4.89062 C32.1354,4.53646 32.3932,4.27344 32.7109,4.10156 C33.0286,3.92969 33.4115,3.84375 33.8594,3.84375 C34.5885,3.84375 35.1797,4.13281 35.6328,4.71094 C36.0859,5.28906 36.3125,6.05208 36.3125,7 C36.3125,7.94792 36.0859,8.71094 35.6328,9.28906 C35.1797,9.86719 34.5885,10.1562 33.8594,10.1562 C33.4115,10.1562 33.0286,10.0703 32.7109,9.89844 C32.3932,9.72656 32.1354,9.45833 31.9375,9.09375 L31.9375,10 L30.9375,10 L30.9375,1.64062 L31.9375,1.64062 L31.9375,4.89062 M40.2812,4.67188 C39.75,4.67188 39.3307,4.88021 39.0234,5.29688 C38.7161,5.71354 38.5625,6.28125 38.5625,7 C38.5625,7.71875 38.7135,8.28385 39.0156,8.69531 C39.3177,9.10677 39.7396,9.3125 40.2812,9.3125 C40.8021,9.3125 41.2161,9.10677 41.5234,8.69531 C41.8307,8.28385 41.9844,7.71875 41.9844,7 C41.9844,6.28125 41.8307,5.71354 41.5234,5.29688 C41.2161,4.88021 40.8021,4.67188 40.2812,4.67188 M40.2812,3.84375 C41.1354,3.84375 41.8073,4.1224 42.2969,4.67969 C42.7865,5.23698 43.0312,6.01042 43.0312,7 C43.0312,7.97917 42.7865,8.75 42.2969,9.3125 C41.8073,9.875 41.1354,10.1562 40.2812,10.1562 C39.4167,10.1562 38.7396,9.875 38.25,9.3125 C37.7604,8.75 37.5156,7.97917 37.5156,7 C37.5156,6.01042 37.7604,5.23698 38.25,4.67969 C38.7396,4.1224 39.4167,3.84375 40.2812,3.84375 M46.4219,1.98438 L47.3281,1.98438 L44.5312,11.0156 L43.625,11.0156 L46.4219,1.98438 M50.7031,4.67188 C50.1719,4.67188 49.7526,4.88021 49.4453,5.29688 C49.138,5.71354 48.9844,6.28125 48.9844,7 C48.9844,7.71875 49.1354,8.28385 49.4375,8.69531 C49.7396,9.10677 50.1615,9.3125 50.7031,9.3125 C51.224,9.3125 51.638,9.10677 51.9453,8.69531 C52.2526,8.28385 52.4062,7.71875 52.4062,7 C52.4062,6.28125 52.2526,5.71354 51.9453,5.29688 C51.638,4.88021 51.224,4.67188 50.7031,4.67188 M50.7031,3.84375 C51.5573,3.84375 52.2292,4.1224 52.7188,4.67969 C53.2083,5.23698 53.4531,6.01042 53.4531,7 C53.4531,7.97917 53.2083,8.75 52.7188,9.3125 C52.2292,9.875 51.5573,10.1562 50.7031,10.1562 C49.8385,10.1562 49.1615,9.875 48.6719,9.3125 C48.1823,8.75 47.9375,7.97917 47.9375,7 C47.9375,6.01042 48.1823,5.23698 48.6719,4.67969 C49.1615,4.1224 49.8385,3.84375 50.7031,3.84375 M54.375,3.98438 L55.4219,3.98438 L57.2969,9.03125 L59.1875,3.98438 L60.2344,3.98438 L57.9688,10 L56.625,10 L54.375,3.98438 M66.7344,6.75 L66.7344,7.23438 L62.1875,7.23438 C62.2292,7.91146 62.4323,8.42708 62.7969,8.78125 C63.1615,9.13542 63.6719,9.3125 64.3281,9.3125 C64.7135,9.3125 65.0833,9.26562 65.4375,9.17188 C65.7917,9.07812 66.1458,8.94271 66.5,8.76562 L66.5,9.6875 C66.1458,9.84375 65.7812,9.96094 65.4062,10.0391 C65.0312,10.1172 64.6562,10.1562 64.2812,10.1562 C63.3125,10.1562 62.5495,9.8776 61.9922,9.32031 C61.4349,8.76302 61.1562,8.00521 61.1562,7.04688 C61.1562,6.06771 61.4219,5.28906 61.9531,4.71094 C62.4844,4.13281 63.2031,3.84375 64.1094,3.84375 C64.9115,3.84375 65.5495,4.10417 66.0234,4.625 C66.4974,5.14583 66.7344,5.85417 66.7344,6.75 M65.7344,6.45312 C65.7344,5.91146 65.5859,5.47917 65.2891,5.15625 C64.9922,4.83333 64.599,4.67188 64.1094,4.67188 C63.5573,4.67188 63.1172,4.82812 62.7891,5.14062 C62.4609,5.45312 62.2708,5.89062 62.2188,6.45312 L65.7344,6.45312 M71.8281,4.90625 C71.724,4.84375 71.6068,4.79688 71.4766,4.76562 C71.3464,4.73438 71.2031,4.71875 71.0469,4.71875 C70.4844,4.71875 70.0547,4.90104 69.7578,5.26562 C69.4609,5.63021 69.3125,6.15104 69.3125,6.82812 L69.3125,10 L68.3125,10 L68.3125,3.98438 L69.3125,3.98438 L69.3125,4.92188 C69.5104,4.55729 69.776,4.28646 70.1094,4.10938 C70.4427,3.93229 70.849,3.84375 71.3281,3.84375 C71.401,3.84375 71.4766,3.84635 71.5547,3.85156 C71.6328,3.85677 71.724,3.86979 71.8281,3.89062 L71.8281,4.90625 M77.8594,6.375 L77.8594,10 L76.875,10 L76.875,6.40625 C76.875,5.83333 76.7656,5.40625 76.5469,5.125 C76.3281,4.84375 75.9948,4.70312 75.5469,4.70312 C75.0156,4.70312 74.5964,4.8724 74.2891,5.21094 C73.9818,5.54948 73.8281,6.01042 73.8281,6.59375 L73.8281,10 L72.8281,10 L72.8281,1.64062 L73.8281,1.64062 L73.8281,4.92188 C74.0573,4.55729 74.3333,4.28646 74.6562,4.10938 C74.9792,3.93229 75.349,3.84375 75.7656,3.84375 C76.4531,3.84375 76.974,4.05729 77.3281,4.48438 C77.6823,4.91146 77.8594,5.54167 77.8594,6.375 M84.9844,6.75 L84.9844,7.23438 L80.4375,7.23438 C80.4792,7.91146 80.6823,8.42708 81.0469,8.78125 C81.4115,9.13542 81.9219,9.3125 82.5781,9.3125 C82.9635,9.3125 83.3333,9.26562 83.6875,9.17188 C84.0417,9.07812 84.3958,8.94271 84.75,8.76562 L84.75,9.6875 C84.3958,9.84375 84.0312,9.96094 83.6562,10.0391 C83.2812,10.1172 82.9062,10.1562 82.5312,10.1562 C81.5625,10.1562 80.7995,9.8776 80.2422,9.32031 C79.6849,8.76302 79.4062,8.00521 79.4062,7.04688 C79.4062,6.06771 79.6719,5.28906 80.2031,4.71094 C80.7344,4.13281 81.4531,3.84375 82.3594,3.84375 C83.1615,3.84375 83.7995,4.10417 84.2734,4.625 C84.7474,5.14583 84.9844,5.85417 84.9844,6.75 M83.9844,6.45312 C83.9844,5.91146 83.8359,5.47917 83.5391,5.15625 C83.2422,4.83333 82.849,4.67188 82.3594,4.67188 C81.8073,4.67188 81.3672,4.82812 81.0391,5.14062 C80.7109,5.45312 80.5208,5.89062 80.4688,6.45312 L83.9844,6.45312 M89.3281,6.96875 C88.5365,6.96875 87.987,7.0625 87.6797,7.25 C87.3724,7.4375 87.2188,7.75 87.2188,8.1875 C87.2188,8.53125 87.3333,8.80729 87.5625,9.01562 C87.7917,9.22396 88.1042,9.32812 88.5,9.32812 C89.0521,9.32812 89.4922,9.13281 89.8203,8.74219 C90.1484,8.35156 90.3125,7.83854 90.3125,7.20312 L90.3125,6.96875 L89.3281,6.96875 M91.2969,6.5625 L91.2969,10 L90.3125,10 L90.3125,9.09375 C90.0938,9.45833 89.8151,9.72656 89.4766,9.89844 C89.138,10.0703 88.724,10.1562 88.2344,10.1562 C87.6198,10.1562 87.1302,9.98438 86.7656,9.64062 C86.401,9.29688 86.2188,8.83333 86.2188,8.25 C86.2188,7.57292 86.4453,7.0625 86.8984,6.71875 C87.3516,6.375 88.0312,6.20312 88.9375,6.20312 L90.3125,6.20312 L90.3125,6.10938 C90.3125,5.65104 90.1641,5.29688 89.8672,5.04688 C89.5703,4.79688 89.151,4.67188 88.6094,4.67188 C88.2656,4.67188 87.9297,4.71354 87.6016,4.79688 C87.2734,4.88021 86.9583,5.00521 86.6562,5.17188 L86.6562,4.26562 C87.0208,4.11979 87.375,4.01302 87.7188,3.94531 C88.0625,3.8776 88.3906,3.84375 88.7031,3.84375 C89.5781,3.84375 90.2292,4.06771 90.6562,4.51562 C91.0833,4.96354 91.2969,5.64583 91.2969,6.5625 M97.2969,4.89062 L97.2969,1.64062 L98.2812,1.64062 L98.2812,10 L97.2969,10 L97.2969,9.09375 C97.0885,9.45833 96.8255,9.72656 96.5078,9.89844 C96.1901,10.0703 95.8073,10.1562 95.3594,10.1562 C94.6406,10.1562 94.0521,9.86719 93.5938,9.28906 C93.1354,8.71094 92.9062,7.94792 92.9062,7 C92.9062,6.05208 93.1354,5.28906 93.5938,4.71094 C94.0521,4.13281 94.6406,3.84375 95.3594,3.84375 C95.8073,3.84375 96.1901,3.92969 96.5078,4.10156 C96.8255,4.27344 97.0885,4.53646 97.2969,4.89062 M93.9219,7 C93.9219,7.72917 94.0729,8.29948 94.375,8.71094 C94.6771,9.1224 95.0885,9.32812 95.6094,9.32812 C96.1302,9.32812 96.5417,9.1224 96.8438,8.71094 C97.1458,8.29948 97.2969,7.72917 97.2969,7 C97.2969,6.27083 97.1458,5.70052 96.8438,5.28906 C96.5417,4.8776 96.1302,4.67188 95.6094,4.67188 C95.0885,4.67188 94.6771,4.8776 94.375,5.28906 C94.0729,5.70052 93.9219,6.27083 93.9219,7 M104.875,11.8281 L104.875,12.5938 L99.1562,12.5938 L99.1562,11.8281 L104.875,11.8281 M110.125,4.21875 L110.125,5.14062 C109.854,4.98438 109.578,4.86719 109.297,4.78906 C109.016,4.71094 108.729,4.67188 108.438,4.67188 C107.802,4.67188 107.307,4.875 106.953,5.28125 C106.599,5.6875 106.422,6.26042 106.422,7 C106.422,7.72917 106.599,8.29688 106.953,8.70312 C107.307,9.10938 107.802,9.3125 108.438,9.3125 C108.729,9.3125 109.016,9.27604 109.297,9.20312 C109.578,9.13021 109.854,9.01562 110.125,8.85938 L110.125,9.76562 C109.854,9.90104 109.57,10 109.273,10.0625 C108.977,10.125 108.661,10.1562 108.328,10.1562 C107.422,10.1562 106.703,9.8724 106.172,9.30469 C105.641,8.73698 105.375,7.96875 105.375,7 C105.375,6.02083 105.643,5.25 106.18,4.6875 C106.716,4.125 107.453,3.84375 108.391,3.84375 C108.703,3.84375 109.003,3.875 109.289,3.9375 C109.576,4 109.854,4.09375 110.125,4.21875 M114.578,6.96875 C113.786,6.96875 113.237,7.0625 112.93,7.25 C112.622,7.4375 112.469,7.75 112.469,8.1875 C112.469,8.53125 112.583,8.80729 112.812,9.01562 C113.042,9.22396 113.354,9.32812 113.75,9.32812 C114.302,9.32812 114.742,9.13281 115.07,8.74219 C115.398,8.35156 115.562,7.83854 115.562,7.20312 L115.562,6.96875 L114.578,6.96875 M116.547,6.5625 L116.547,10 L115.562,10 L115.562,9.09375 C115.344,9.45833 115.065,9.72656 114.727,9.89844 C114.388,10.0703 113.974,10.1562 113.484,10.1562 C112.87,10.1562 112.38,9.98438 112.016,9.64062 C111.651,9.29688 111.469,8.83333 111.469,8.25 C111.469,7.57292 111.695,7.0625 112.148,6.71875 C112.602,6.375 113.281,6.20312 114.188,6.20312 L115.562,6.20312 L115.562,6.10938 C115.562,5.65104 115.414,5.29688 115.117,5.04688 C114.82,4.79688 114.401,4.67188 113.859,4.67188 C113.516,4.67188 113.18,4.71354 112.852,4.79688 C112.523,4.88021 112.208,5.00521 111.906,5.17188 L111.906,4.26562 C112.271,4.11979 112.625,4.01302 112.969,3.94531 C113.312,3.8776 113.641,3.84375 113.953,3.84375 C114.828,3.84375 115.479,4.06771 115.906,4.51562 C116.333,4.96354 116.547,5.64583 116.547,6.5625 M123.266,5.14062 C123.516,4.69271 123.812,4.36458 124.156,4.15625 C124.5,3.94792 124.906,3.84375 125.375,3.84375 C126,3.84375 126.482,4.0625 126.82,4.5 C127.159,4.9375 127.328,5.5625 127.328,6.375 L127.328,10 L126.328,10 L126.328,6.40625 C126.328,5.82292 126.227,5.39323 126.023,5.11719 C125.82,4.84115 125.51,4.70312 125.094,4.70312 C124.583,4.70312 124.18,4.8724 123.883,5.21094 C123.586,5.54948 123.438,6.01042 123.438,6.59375 L123.438,10 L122.438,10 L122.438,6.40625 C122.438,5.82292 122.336,5.39323 122.133,5.11719 C121.93,4.84115 121.615,4.70312 121.188,4.70312 C120.688,4.70312 120.289,4.8724 119.992,5.21094 C119.695,5.54948 119.547,6.01042 119.547,6.59375 L119.547,10 L118.547,10 L118.547,3.98438 L119.547,3.98438 L119.547,4.92188 C119.766,4.54688 120.034,4.27344 120.352,4.10156 C120.669,3.92969 121.042,3.84375 121.469,3.84375 C121.906,3.84375 122.279,3.95312 122.586,4.17188 C122.893,4.39062 123.12,4.71354 123.266,5.14062 M131.047,1.98438 L131.953,1.98438 L129.156,11.0156 L128.25,11.0156 L131.047,1.98438 M137.312,4.21875 L137.312,5.14062 C137.042,4.98438 136.766,4.86719 136.484,4.78906 C136.203,4.71094 135.917,4.67188 135.625,4.67188 C134.99,4.67188 134.495,4.875 134.141,5.28125 C133.786,5.6875 133.609,6.26042 133.609,7 C133.609,7.72917 133.786,8.29688 134.141,8.70312 C134.495,9.10938 134.99,9.3125 135.625,9.3125 C135.917,9.3125 136.203,9.27604 136.484,9.20312 C136.766,9.13021 137.042,9.01562 137.312,8.85938 L137.312,9.76562 C137.042,9.90104 136.758,10 136.461,10.0625 C136.164,10.125 135.849,10.1562 135.516,10.1562 C134.609,10.1562 133.891,9.8724 133.359,9.30469 C132.828,8.73698 132.562,7.96875 132.562,7 C132.562,6.02083 132.831,5.25 133.367,4.6875 C133.904,4.125 134.641,3.84375 135.578,3.84375 C135.891,3.84375 136.19,3.875 136.477,3.9375 C136.763,4 137.042,4.09375 137.312,4.21875 M141.766,6.96875 C140.974,6.96875 140.424,7.0625 140.117,7.25 C139.81,7.4375 139.656,7.75 139.656,8.1875 C139.656,8.53125 139.771,8.80729 140,9.01562 C140.229,9.22396 140.542,9.32812 140.938,9.32812 C141.49,9.32812 141.93,9.13281 142.258,8.74219 C142.586,8.35156 142.75,7.83854 142.75,7.20312 L142.75,6.96875 L141.766,6.96875 M143.734,6.5625 L143.734,10 L142.75,10 L142.75,9.09375 C142.531,9.45833 142.253,9.72656 141.914,9.89844 C141.576,10.0703 141.161,10.1562 140.672,10.1562 C140.057,10.1562 139.568,9.98438 139.203,9.64062 C138.839,9.29688 138.656,8.83333 138.656,8.25 C138.656,7.57292 138.883,7.0625 139.336,6.71875 C139.789,6.375 140.469,6.20312 141.375,6.20312 L142.75,6.20312 L142.75,6.10938 C142.75,5.65104 142.602,5.29688 142.305,5.04688 C142.008,4.79688 141.589,4.67188 141.047,4.67188 C140.703,4.67188 140.367,4.71354 140.039,4.79688 C139.711,4.88021 139.396,5.00521 139.094,5.17188 L139.094,4.26562 C139.458,4.11979 139.812,4.01302 140.156,3.94531 C140.5,3.8776 140.828,3.84375 141.141,3.84375 C142.016,3.84375 142.667,4.06771 143.094,4.51562 C143.521,4.96354 143.734,5.64583 143.734,6.5625 M150.453,5.14062 C150.703,4.69271 151,4.36458 151.344,4.15625 C151.688,3.94792 152.094,3.84375 152.562,3.84375 C153.188,3.84375 153.669,4.0625 154.008,4.5 C154.346,4.9375 154.516,5.5625 154.516,6.375 L154.516,10 L153.516,10 L153.516,6.40625 C153.516,5.82292 153.414,5.39323 153.211,5.11719 C153.008,4.84115 152.698,4.70312 152.281,4.70312 C151.771,4.70312 151.367,4.8724 151.07,5.21094 C150.773,5.54948 150.625,6.01042 150.625,6.59375 L150.625,10 L149.625,10 L149.625,6.40625 C149.625,5.82292 149.523,5.39323 149.32,5.11719 C149.117,4.84115 148.802,4.70312 148.375,4.70312 C147.875,4.70312 147.477,4.8724 147.18,5.21094 C146.883,5.54948 146.734,6.01042 146.734,6.59375 L146.734,10 L145.734,10 L145.734,3.98438 L146.734,3.98438 L146.734,4.92188 C146.953,4.54688 147.221,4.27344 147.539,4.10156 C147.857,3.92969 148.229,3.84375 148.656,3.84375 C149.094,3.84375 149.466,3.95312 149.773,4.17188 C150.081,4.39062 150.307,4.71354 150.453,5.14062 M161.625,6.75 L161.625,7.23438 L157.078,7.23438 C157.12,7.91146 157.323,8.42708 157.688,8.78125 C158.052,9.13542 158.562,9.3125 159.219,9.3125 C159.604,9.3125 159.974,9.26562 160.328,9.17188 C160.682,9.07812 161.036,8.94271 161.391,8.76562 L161.391,9.6875 C161.036,9.84375 160.672,9.96094 160.297,10.0391 C159.922,10.1172 159.547,10.1562 159.172,10.1562 C158.203,10.1562 157.44,9.8776 156.883,9.32031 C156.326,8.76302 156.047,8.00521 156.047,7.04688 C156.047,6.06771 156.312,5.28906 156.844,4.71094 C157.375,4.13281 158.094,3.84375 159,3.84375 C159.802,3.84375 160.44,4.10417 160.914,4.625 C161.388,5.14583 161.625,5.85417 161.625,6.75 M160.625,6.45312 C160.625,5.91146 160.477,5.47917 160.18,5.15625 C159.883,4.83333 159.49,4.67188 159,4.67188 C158.448,4.67188 158.008,4.82812 157.68,5.14062 C157.352,5.45312 157.161,5.89062 157.109,6.45312 L160.625,6.45312 M166.719,4.90625 C166.615,4.84375 166.497,4.79688 166.367,4.76562 C166.237,4.73438 166.094,4.71875 165.938,4.71875 C165.375,4.71875 164.945,4.90104 164.648,5.26562 C164.352,5.63021 164.203,6.15104 164.203,6.82812 L164.203,10 L163.203,10 L163.203,3.98438 L164.203,3.98438 L164.203,4.92188 C164.401,4.55729 164.667,4.28646 165,4.10938 C165.333,3.93229 165.74,3.84375 166.219,3.84375 C166.292,3.84375 166.367,3.84635 166.445,3.85156 C166.523,3.85677 166.615,3.86979 166.719,3.89062 L166.719,4.90625 M170.484,6.96875 C169.693,6.96875 169.143,7.0625 168.836,7.25 C168.529,7.4375 168.375,7.75 168.375,8.1875 C168.375,8.53125 168.49,8.80729 168.719,9.01562 C168.948,9.22396 169.26,9.32812 169.656,9.32812 C170.208,9.32812 170.648,9.13281 170.977,8.74219 C171.305,8.35156 171.469,7.83854 171.469,7.20312 L171.469,6.96875 L170.484,6.96875 M172.453,6.5625 L172.453,10 L171.469,10 L171.469,9.09375 C171.25,9.45833 170.971,9.72656 170.633,9.89844 C170.294,10.0703 169.88,10.1562 169.391,10.1562 C168.776,10.1562 168.286,9.98438 167.922,9.64062 C167.557,9.29688 167.375,8.83333 167.375,8.25 C167.375,7.57292 167.602,7.0625 168.055,6.71875 C168.508,6.375 169.188,6.20312 170.094,6.20312 L171.469,6.20312 L171.469,6.10938 C171.469,5.65104 171.32,5.29688 171.023,5.04688 C170.727,4.79688 170.307,4.67188 169.766,4.67188 C169.422,4.67188 169.086,4.71354 168.758,4.79688 C168.43,4.88021 168.115,5.00521 167.812,5.17188 L167.812,4.26562 C168.177,4.11979 168.531,4.01302 168.875,3.94531 C169.219,3.8776 169.547,3.84375 169.859,3.84375 C170.734,3.84375 171.385,4.06771 171.812,4.51562 C172.24,4.96354 172.453,5.64583 172.453,6.5625 M179.062,11.8281 L179.062,12.5938 L173.344,12.5938 L173.344,11.8281 L179.062,11.8281 M179.984,3.98438 L180.984,3.98438 L180.984,10 L179.984,10 L179.984,3.98438 M179.984,1.64062 L180.984,1.64062 L180.984,2.89062 L179.984,2.89062 L179.984,1.64062 M188.031,6.375 L188.031,10 L187.047,10 L187.047,6.40625 C187.047,5.83333 186.938,5.40625 186.719,5.125 C186.5,4.84375 186.167,4.70312 185.719,4.70312 C185.188,4.70312 184.768,4.8724 184.461,5.21094 C184.154,5.54948 184,6.01042 184,6.59375 L184,10 L183,10 L183,3.98438 L184,3.98438 L184,4.92188 C184.229,4.55729 184.505,4.28646 184.828,4.10938 C185.151,3.93229 185.521,3.84375 185.938,3.84375 C186.625,3.84375 187.146,4.05729 187.5,4.48438 C187.854,4.91146 188.031,5.54167 188.031,6.375 M193.047,1.64062 L193.047,2.46875 L192.109,2.46875 C191.755,2.46875 191.508,2.53906 191.367,2.67969 C191.227,2.82031 191.156,3.07812 191.156,3.45312 L191.156,3.98438 L192.781,3.98438 L192.781,4.75 L191.156,4.75 L191.156,10 L190.172,10 L190.172,4.75 L189.219,4.75 L189.219,3.98438 L190.172,3.98438 L190.172,3.5625 C190.172,2.89583 190.326,2.40885 190.633,2.10156 C190.94,1.79427 191.432,1.64062 192.109,1.64062 L193.047,1.64062 M196.203,4.67188 C195.672,4.67188 195.253,4.88021 194.945,5.29688 C194.638,5.71354 194.484,6.28125 194.484,7 C194.484,7.71875 194.635,8.28385 194.938,8.69531 C195.24,9.10677 195.661,9.3125 196.203,9.3125 C196.724,9.3125 197.138,9.10677 197.445,8.69531 C197.753,8.28385 197.906,7.71875 197.906,7 C197.906,6.28125 197.753,5.71354 197.445,5.29688 C197.138,4.88021 196.724,4.67188 196.203,4.67188 M196.203,3.84375 C197.057,3.84375 197.729,4.1224 198.219,4.67969 C198.708,5.23698 198.953,6.01042 198.953,7 C198.953,7.97917 198.708,8.75 198.219,9.3125 C197.729,9.875 197.057,10.1562 196.203,10.1562 C195.339,10.1562 194.661,9.875 194.172,9.3125 C193.682,8.75 193.438,7.97917 193.438,7 C193.438,6.01042 193.682,5.23698 194.172,4.67969 C194.661,4.1224 195.339,3.84375 196.203,3.84375 "/>
</g>

<g fill="none" stroke="#000000" stroke-opacity="1" stroke-width="1" stroke-linecap="square" stroke-linejoin="bevel" transform="matrix(2,0,0,2,230.235,116)"
font-family="sans" font-size="11" font-weight="100" font-style="normal" 
>
</g>

<g fill="none" stroke="#000000" stroke-opacity="1" stroke-width="1" stroke-linecap="square" stroke-linejoin="bevel" transform="matrix(2,0,0,2,230.235,116)"
font-family="Ubuntu" font-size="11" font-weight="400" font-style="normal" 
>
</g>

<g fill="none" stroke="#000000" stroke-opacity="1" stroke-width="1" stroke-linecap="square" stroke-linejoin="bevel" transform="matrix(2,0,0,2,0.002,212)"
font-family="Ubuntu" font-size="11" font-weight="400" font-style="normal" 
>
</g>

<g fill="#000000" fill-opacity="1" stroke="#000000" stroke-opacity="1" stroke-width="1" stroke-linecap="square" stroke-linejoin="round" transform="matrix(2,0,0,2,0.002,212)"
font-family="Ubuntu" font-size="11" font-weight="400" font-style="normal" 
>
<path vector-effect="none" fill-rule="evenodd" d="M311.22,-34 L311.22,-30.416 L321.46,-34 L311.22,-37.584 L311.22,-34"/>
</g>

<g fill="none" stroke="#000000" stroke-opacity="1" stroke-width="1" stroke-linecap="square" stroke-linejoin="bevel" transform="matrix(2,0,0,2,0.002,212)"
font-family="Ubuntu" font-size="11" font-weight="400" font-style="normal" 
>
</g>

<g fill="none" stroke="#000000" stroke-opacity="1" stroke-width="1" stroke-linecap="square" stroke-linejoin="bevel" transform="matrix(2,0,0,2,0.002,212)"
font-family="Ubuntu" font-size="11" font-weight="400" font-style="normal" 
>
</g>

<g fill="none" stroke="#000000" stroke-opacity="1" stroke-width="1" stroke-linecap="square" stroke-linejoin="bevel" transform="matrix(2,0,0,2,0.002,212)"
font-family="Ubuntu" font-size="11" font-weight="400" font-style="normal" 
>
</g>

<g fill="none" stroke="#000000" stroke-opacity="1" stroke-width="1" stroke-linecap="square" stroke-linejoin="bevel" transform="matrix(2,0,0,2,0.002,212)"
font-family="Ubuntu" font-size="11" font-weight="400" font-style="normal" 
>
</g>

<g fill="none" stroke="#000000" stroke-opacity="1" stroke-width="1" stroke-linecap="square" stroke-linejoin="round" transform="matrix(2,0,0,2,0.002,212)"
font-family="Ubuntu" font-size="11" font-weight="400" font-style="normal" 
>
<path vector-effect="none" fill-rule="evenodd" d="M403.92,-34 C435.79,-34 482.18,-34 526.25,-34 "/>
</g>

<g fill="none" stroke="#000000" stroke-opacity="1" stroke-width="1" stroke-linecap="square" stroke-linejoin="bevel" transform="matrix(2,0,0,2,0.002,212)"
font-family="Ubuntu" font-size="11" font-weight="400" font-style="normal" 
>
</g>

<g fill="none" stroke="#000000" stroke-opacity="1" stroke-width="1" stroke-linecap="square" stroke-linejoin="bevel" transform="matrix(2,0,0,2,824.249,116)"
font-family="Ubuntu" font-size="11" font-weight="400" font-style="normal" 
>
</g>

<g fill="none" stroke="#000000" stroke-opacity="1" stroke-width="1" stroke-linecap="square" stroke-linejoin="bevel" transform="matrix(2,0,0,2,824.249,116)"
font-family="sans" font-size="11" font-weight="100" font-style="normal" 
>
</g>

<g fill="#000000" fill-opacity="1" stroke="#000000" stroke-opacity="1" stroke-width="1" stroke-linecap="square" stroke-linejoin="round" transform="matrix(2,0,0,2,824.249,116)"
font-family="sans" font-size="11" font-weight="100" font-style="normal" 
>
<path vector-effect="none" fill-rule="nonzero" d="M2.79688,1.98438 L3.70312,1.98438 L0.90625,11.0156 L0,11.0156 L2.79688,1.98438 M4.17188,3.98438 L5.15625,3.98438 L6.39062,8.67188 L7.625,3.98438 L8.78125,3.98438 L10.0156,8.67188 L11.25,3.98438 L12.2344,3.98438 L10.6719,10 L9.5,10 L8.20312,5.0625 L6.90625,10 L5.73438,10 L4.17188,3.98438 M18.7188,6.375 L18.7188,10 L17.7344,10 L17.7344,6.40625 C17.7344,5.83333 17.625,5.40625 17.4062,5.125 C17.1875,4.84375 16.8542,4.70312 16.4062,4.70312 C15.875,4.70312 15.4557,4.8724 15.1484,5.21094 C14.8411,5.54948 14.6875,6.01042 14.6875,6.59375 L14.6875,10 L13.6875,10 L13.6875,1.64062 L14.6875,1.64062 L14.6875,4.92188 C14.9167,4.55729 15.1927,4.28646 15.5156,4.10938 C15.8385,3.93229 16.2083,3.84375 16.625,3.84375 C17.3125,3.84375 17.8333,4.05729 18.1875,4.48438 C18.5417,4.91146 18.7188,5.54167 18.7188,6.375 M23.2031,10.5625 C22.9219,11.2812 22.6484,11.7474 22.3828,11.9609 C22.1172,12.1745 21.7604,12.2812 21.3125,12.2812 L20.5312,12.2812 L20.5312,11.4688 L21.1094,11.4688 C21.3802,11.4688 21.5911,11.4036 21.7422,11.2734 C21.8932,11.1432 22.0573,10.8385 22.2344,10.3594 L22.4219,9.90625 L19.9844,3.98438 L21.0312,3.98438 L22.9062,8.6875 L24.7969,3.98438 L25.8438,3.98438 L23.2031,10.5625 M31.5156,4.21875 L31.5156,5.14062 C31.2448,4.98438 30.9688,4.86719 30.6875,4.78906 C30.4062,4.71094 30.1198,4.67188 29.8281,4.67188 C29.1927,4.67188 28.6979,4.875 28.3438,5.28125 C27.9896,5.6875 27.8125,6.26042 27.8125,7 C27.8125,7.72917 27.9896,8.29688 28.3438,8.70312 C28.6979,9.10938 29.1927,9.3125 29.8281,9.3125 C30.1198,9.3125 30.4062,9.27604 30.6875,9.20312 C30.9688,9.13021 31.2448,9.01562 31.5156,8.85938 L31.5156,9.76562 C31.2448,9.90104 30.9609,10 30.6641,10.0625 C30.3672,10.125 30.0521,10.1562 29.7188,10.1562 C28.8125,10.1562 28.0938,9.8724 27.5625,9.30469 C27.0312,8.73698 26.7656,7.96875 26.7656,7 C26.7656,6.02083 27.0339,5.25 27.5703,4.6875 C28.1068,4.125 28.8438,3.84375 29.7812,3.84375 C30.0938,3.84375 30.3932,3.875 30.6797,3.9375 C30.9661,4 31.2448,4.09375 31.5156,4.21875 M35.5781,4.67188 C35.0469,4.67188 34.6276,4.88021 34.3203,5.29688 C34.013,5.71354 33.8594,6.28125 33.8594,7 C33.8594,7.71875 34.0104,8.28385 34.3125,8.69531 C34.6146,9.10677 35.0365,9.3125 35.5781,9.3125 C36.099,9.3125 36.513,9.10677 36.8203,8.69531 C37.1276,8.28385 37.2812,7.71875 37.2812,7 C37.2812,6.28125 37.1276,5.71354 36.8203,5.29688 C36.513,4.88021 36.099,4.67188 35.5781,4.67188 M35.5781,3.84375 C36.4323,3.84375 37.1042,4.1224 37.5938,4.67969 C38.0833,5.23698 38.3281,6.01042 38.3281,7 C38.3281,7.97917 38.0833,8.75 37.5938,9.3125 C37.1042,9.875 36.4323,10.1562 35.5781,10.1562 C34.7135,10.1562 34.0365,9.875 33.5469,9.3125 C33.0573,8.75 32.8125,7.97917 32.8125,7 C32.8125,6.01042 33.0573,5.23698 33.5469,4.67969 C34.0365,4.1224 34.7135,3.84375 35.5781,3.84375 M44.9531,6.375 L44.9531,10 L43.9688,10 L43.9688,6.40625 C43.9688,5.83333 43.8594,5.40625 43.6406,5.125 C43.4219,4.84375 43.0885,4.70312 42.6406,4.70312 C42.1094,4.70312 41.6901,4.8724 41.3828,5.21094 C41.0755,5.54948 40.9219,6.01042 40.9219,6.59375 L40.9219,10 L39.9219,10 L39.9219,3.98438 L40.9219,3.98438 L40.9219,4.92188 C41.151,4.55729 41.4271,4.28646 41.75,4.10938 C42.0729,3.93229 42.4427,3.84375 42.8594,3.84375 C43.5469,3.84375 44.0677,4.05729 44.4219,4.48438 C44.776,4.91146 44.9531,5.54167 44.9531,6.375 M48.6875,1.98438 L49.5938,1.98438 L46.7969,11.0156 L45.8906,11.0156 L48.6875,1.98438 M50.625,3.98438 L51.625,3.98438 L51.625,10 L50.625,10 L50.625,3.98438 M50.625,1.64062 L51.625,1.64062 L51.625,2.89062 L50.625,2.89062 L50.625,1.64062 M58.3594,5.14062 C58.6094,4.69271 58.9062,4.36458 59.25,4.15625 C59.5938,3.94792 60,3.84375 60.4688,3.84375 C61.0938,3.84375 61.5755,4.0625 61.9141,4.5 C62.2526,4.9375 62.4219,5.5625 62.4219,6.375 L62.4219,10 L61.4219,10 L61.4219,6.40625 C61.4219,5.82292 61.3203,5.39323 61.1172,5.11719 C60.9141,4.84115 60.6042,4.70312 60.1875,4.70312 C59.6771,4.70312 59.2734,4.8724 58.9766,5.21094 C58.6797,5.54948 58.5312,6.01042 58.5312,6.59375 L58.5312,10 L57.5312,10 L57.5312,6.40625 C57.5312,5.82292 57.4297,5.39323 57.2266,5.11719 C57.0234,4.84115 56.7083,4.70312 56.2812,4.70312 C55.7812,4.70312 55.3828,4.8724 55.0859,5.21094 C54.7891,5.54948 54.6406,6.01042 54.6406,6.59375 L54.6406,10 L53.6406,10 L53.6406,3.98438 L54.6406,3.98438 L54.6406,4.92188 C54.8594,4.54688 55.1276,4.27344 55.4453,4.10156 C55.763,3.92969 56.1354,3.84375 56.5625,3.84375 C57,3.84375 57.3724,3.95312 57.6797,4.17188 C57.987,4.39062 58.2135,4.71354 58.3594,5.14062 M67.1094,6.96875 C66.3177,6.96875 65.7682,7.0625 65.4609,7.25 C65.1536,7.4375 65,7.75 65,8.1875 C65,8.53125 65.1146,8.80729 65.3438,9.01562 C65.5729,9.22396 65.8854,9.32812 66.2812,9.32812 C66.8333,9.32812 67.2734,9.13281 67.6016,8.74219 C67.9297,8.35156 68.0938,7.83854 68.0938,7.20312 L68.0938,6.96875 L67.1094,6.96875 M69.0781,6.5625 L69.0781,10 L68.0938,10 L68.0938,9.09375 C67.875,9.45833 67.5964,9.72656 67.2578,9.89844 C66.9193,10.0703 66.5052,10.1562 66.0156,10.1562 C65.401,10.1562 64.9115,9.98438 64.5469,9.64062 C64.1823,9.29688 64,8.83333 64,8.25 C64,7.57292 64.2266,7.0625 64.6797,6.71875 C65.1328,6.375 65.8125,6.20312 66.7188,6.20312 L68.0938,6.20312 L68.0938,6.10938 C68.0938,5.65104 67.9453,5.29688 67.6484,5.04688 C67.3516,4.79688 66.9323,4.67188 66.3906,4.67188 C66.0469,4.67188 65.7109,4.71354 65.3828,4.79688 C65.0547,4.88021 64.7396,5.00521 64.4375,5.17188 L64.4375,4.26562 C64.8021,4.11979 65.1562,4.01302 65.5,3.94531 C65.8438,3.8776 66.1719,3.84375 66.4844,3.84375 C67.3594,3.84375 68.0104,4.06771 68.4375,4.51562 C68.8646,4.96354 69.0781,5.64583 69.0781,6.5625 M75.0781,6.92188 C75.0781,6.20312 74.9297,5.64844 74.6328,5.25781 C74.3359,4.86719 73.9219,4.67188 73.3906,4.67188 C72.8594,4.67188 72.4453,4.86719 72.1484,5.25781 C71.8516,5.64844 71.7031,6.20312 71.7031,6.92188 C71.7031,7.63021 71.8516,8.18229 72.1484,8.57812 C72.4453,8.97396 72.8594,9.17188 73.3906,9.17188 C73.9219,9.17188 74.3359,8.97396 74.6328,8.57812 C74.9297,8.18229 75.0781,7.63021 75.0781,6.92188 M76.0625,9.25 C76.0625,10.2812 75.8359,11.0443 75.3828,11.5391 C74.9297,12.0339 74.2344,12.2812 73.2969,12.2812 C72.9427,12.2812 72.612,12.2552 72.3047,12.2031 C71.9974,12.151 71.6979,12.0729 71.4062,11.9688 L71.4062,11.0156 C71.6979,11.1719 71.9844,11.2865 72.2656,11.3594 C72.5469,11.4323 72.8385,11.4688 73.1406,11.4688 C73.7865,11.4688 74.2708,11.2995 74.5938,10.9609 C74.9167,10.6224 75.0781,10.1146 75.0781,9.4375 L75.0781,8.9375 C74.8698,9.29167 74.6068,9.55729 74.2891,9.73438 C73.9714,9.91146 73.5885,10 73.1406,10 C72.401,10 71.8073,9.71875 71.3594,9.15625 C70.9115,8.59375 70.6875,7.84896 70.6875,6.92188 C70.6875,5.99479 70.9115,5.25 71.3594,4.6875 C71.8073,4.125 72.401,3.84375 73.1406,3.84375 C73.5885,3.84375 73.9714,3.92969 74.2891,4.10156 C74.6068,4.27344 74.8698,4.53646 75.0781,4.89062 L75.0781,3.98438 L76.0625,3.98438 L76.0625,9.25 M83.2344,6.75 L83.2344,7.23438 L78.6875,7.23438 C78.7292,7.91146 78.9323,8.42708 79.2969,8.78125 C79.6615,9.13542 80.1719,9.3125 80.8281,9.3125 C81.2135,9.3125 81.5833,9.26562 81.9375,9.17188 C82.2917,9.07812 82.6458,8.94271 83,8.76562 L83,9.6875 C82.6458,9.84375 82.2812,9.96094 81.9062,10.0391 C81.5312,10.1172 81.1562,10.1562 80.7812,10.1562 C79.8125,10.1562 79.0495,9.8776 78.4922,9.32031 C77.9349,8.76302 77.6562,8.00521 77.6562,7.04688 C77.6562,6.06771 77.9219,5.28906 78.4531,4.71094 C78.9844,4.13281 79.7031,3.84375 80.6094,3.84375 C81.4115,3.84375 82.0495,4.10417 82.5234,4.625 C82.9974,5.14583 83.2344,5.85417 83.2344,6.75 M82.2344,6.45312 C82.2344,5.91146 82.0859,5.47917 81.7891,5.15625 C81.4922,4.83333 81.099,4.67188 80.6094,4.67188 C80.0573,4.67188 79.6172,4.82812 79.2891,5.14062 C78.9609,5.45312 78.7708,5.89062 78.7188,6.45312 L82.2344,6.45312 M89.4219,11.8281 L89.4219,12.5938 L83.7031,12.5938 L83.7031,11.8281 L89.4219,11.8281 M92.6875,4.67188 C92.1562,4.67188 91.737,4.88021 91.4297,5.29688 C91.1224,5.71354 90.9688,6.28125 90.9688,7 C90.9688,7.71875 91.1198,8.28385 91.4219,8.69531 C91.724,9.10677 92.1458,9.3125 92.6875,9.3125 C93.2083,9.3125 93.6224,9.10677 93.9297,8.69531 C94.237,8.28385 94.3906,7.71875 94.3906,7 C94.3906,6.28125 94.237,5.71354 93.9297,5.29688 C93.6224,4.88021 93.2083,4.67188 92.6875,4.67188 M92.6875,3.84375 C93.5417,3.84375 94.2135,4.1224 94.7031,4.67969 C95.1927,5.23698 95.4375,6.01042 95.4375,7 C95.4375,7.97917 95.1927,8.75 94.7031,9.3125 C94.2135,9.875 93.5417,10.1562 92.6875,10.1562 C91.8229,10.1562 91.1458,9.875 90.6562,9.3125 C90.1667,8.75 89.9219,7.97917 89.9219,7 C89.9219,6.01042 90.1667,5.23698 90.6562,4.67969 C91.1458,4.1224 91.8229,3.84375 92.6875,3.84375 M96.9688,7.625 L96.9688,3.98438 L97.9531,3.98438 L97.9531,7.59375 C97.9531,8.15625 98.0651,8.58073 98.2891,8.86719 C98.513,9.15365 98.8438,9.29688 99.2812,9.29688 C99.8229,9.29688 100.247,9.1276 100.555,8.78906 C100.862,8.45052 101.016,7.98438 101.016,7.39062 L101.016,3.98438 L102,3.98438 L102,10 L101.016,10 L101.016,9.07812 C100.776,9.44271 100.497,9.71354 100.18,9.89062 C99.862,10.0677 99.4948,10.1562 99.0781,10.1562 C98.3906,10.1562 97.8672,9.9401 97.5078,9.50781 C97.1484,9.07552 96.9688,8.44792 96.9688,7.625 M105.016,2.28125 L105.016,3.98438 L107.047,3.98438 L107.047,4.75 L105.016,4.75 L105.016,8.01562 C105.016,8.50521 105.083,8.82031 105.219,8.96094 C105.354,9.10156 105.625,9.17188 106.031,9.17188 L107.047,9.17188 L107.047,10 L106.031,10 C105.271,10 104.745,9.85677 104.453,9.57031 C104.161,9.28385 104.016,8.76562 104.016,8.01562 L104.016,4.75 L103.297,4.75 L103.297,3.98438 L104.016,3.98438 L104.016,2.28125 L105.016,2.28125"/>
</g>

<g fill="none" stroke="#000000" stroke-opacity="1" stroke-width="1" stroke-linecap="square" stroke-linejoin="bevel" transform="matrix(2,0,0,2,824.249,116)"
font-family="sans" font-size="11" font-weight="100" font-style="normal" 
>
</g>

<g fill="none" stroke="#000000" stroke-opacity="1" stroke-width="1" stroke-linecap="square" stroke-linejoin="bevel" transform="matrix(2,0,0,2,824.249,116)"
font-family="Ubuntu" font-size="11" font-weight="400" font-style="normal" 
>
</g>

<g fill="none" stroke="#000000" stroke-opacity="1" stroke-width="1" stroke-linecap="square" stroke-linejoin="bevel" transform="matrix(2,0,0,2,0.002,212)"
font-family="Ubuntu" font-size="11" font-weight="400" font-style="normal" 
>
</g>

<g fill="#000000" fill-opacity="1" stroke="#000000" stroke-opacity="1" stroke-width="1" stroke-linecap="square" stroke-linejoin="round" transform="matrix(2,0,0,2,0.002,212)"
font-family="Ubuntu" font-size="11" font-weight="400" font-style="normal" 
>
<path vector-effect="none" fill-rule="evenodd" d="M526.25,-34 L526.25,-30.4125 L536.5,-34 L526.25,-37.5875 L526.25,-34"/>
</g>

<g fill="none" stroke="#000000" stroke-opacity="1" stroke-width="1" stroke-linecap="square" stroke-linejoin="bevel" transform="matrix(2,0,0,2,0.002,212)"
font-family="Ubuntu" font-size="11" font-weight="400" font-style="normal" 
>
</g>

<g fill="none" stroke="#000000" stroke-opacity="1" stroke-width="1" stroke-linecap="square" stroke-linejoin="bevel" transform="matrix(1,0,0,1,0,0)"
font-family="Ubuntu" font-size="11" font-weight="400" font-style="normal" 
>
</g>
</g>
</svg>
